<svg width="431" height="408" viewBox="0 0 431 408" fill="none" xmlns="http://www.w3.org/2000/svg">
<g filter="url(#filter0_d_796_125597)">
<path d="M215.453 38.6238C223.147 34.0724 232.709 34.0724 240.403 38.6238L289.89 67.8986L340.009 95.9413C347.844 100.325 352.653 108.643 352.545 117.62L351.853 174.864L352.545 232.108C352.653 241.086 347.844 249.403 340.009 253.787L289.89 281.83L240.403 311.104C232.709 315.656 223.147 315.656 215.453 311.104L165.965 281.83L115.847 253.787C108.012 249.403 103.202 241.086 103.311 232.108L104.003 174.864L103.311 117.62C103.202 108.643 108.012 100.325 115.847 95.9413L165.965 67.8986L215.453 38.6238Z" fill="url(#paint0_linear_796_125597)"/>
<path d="M289.287 68.919L289.299 68.9262L289.311 68.9332L339.43 96.9759C346.886 101.148 351.463 109.063 351.359 117.606L350.667 174.85L350.667 174.864L350.667 174.878L351.359 232.123C351.463 240.665 346.886 248.581 339.43 252.752L289.311 280.795L289.299 280.802L289.287 280.809L239.799 310.084C232.478 314.415 223.378 314.415 216.056 310.084L166.569 280.809L166.557 280.802L166.544 280.795L116.426 252.752C108.97 248.581 104.393 240.665 104.496 232.123L105.188 174.878L105.189 174.864L105.188 174.85L104.496 117.606C104.393 109.063 108.97 101.148 116.426 96.9759L166.544 68.9332L166.557 68.9262L166.569 68.919L216.056 39.6442C223.378 35.3131 232.478 35.313 239.799 39.6442L289.287 68.919Z" stroke="url(#paint1_linear_796_125597)" stroke-width="2.37115"/>
</g>
<path d="M162.676 289.518L162.669 289.514L159.278 287.611L159.104 287.921L152.323 284.114L152.497 283.804L145.716 279.997L145.542 280.307L138.761 276.5L138.935 276.19L132.154 272.383L131.98 272.693L125.199 268.886L125.373 268.576L118.592 264.77L118.418 265.079L111.637 261.272L111.811 260.963L108.42 259.059C107.472 258.527 106.569 257.936 105.714 257.293L105.501 257.577C103.735 256.248 102.174 254.698 100.847 252.978L101.128 252.761C99.8089 251.052 98.7242 249.174 97.9039 247.177L97.5753 247.312C96.7498 245.303 96.1881 243.176 95.9198 240.982L96.2725 240.939C96.1426 239.878 96.0825 238.8 96.0956 237.713L96.1425 233.825L95.7872 233.82L95.8809 226.044L96.2362 226.049L96.3299 218.273L95.9746 218.268L96.0683 210.492L96.4236 210.497L96.5173 202.72L96.162 202.716L96.2558 194.94L96.611 194.944L96.7047 187.168L96.3495 187.164L96.4432 179.388L96.7984 179.392L96.8454 175.504L96.8453 175.496L96.7984 171.608L96.4432 171.612L96.3495 163.836L96.7047 163.832L96.611 156.056L96.2558 156.06L96.162 148.284L96.5173 148.28L96.4236 140.503L96.0683 140.508L95.9746 132.732L96.3299 132.727L96.2362 124.951L95.8809 124.956L95.7872 117.18L96.1425 117.175L96.0956 113.287C96.0825 112.2 96.1426 111.122 96.2725 110.061L95.9198 110.018C96.1881 107.824 96.7498 105.697 97.5753 103.688L97.9039 103.823C98.7242 101.826 99.8089 99.9477 101.128 98.2389L100.847 98.0218C102.174 96.3023 103.735 94.7524 105.501 93.4233L105.714 93.7072C106.569 93.0639 107.472 92.4731 108.42 91.9408L111.811 90.0373L111.637 89.7275L118.418 85.9206L118.592 86.2304L125.373 82.4236L125.199 82.1138L131.98 78.3069L132.154 78.6167L138.935 74.8098L138.761 74.5L145.542 70.6932L145.716 71.003L152.497 67.1961L152.323 66.8863L159.104 63.0794L159.278 63.3892L162.669 61.4859L162.676 61.4815L166.02 59.4969L165.839 59.1914L172.526 55.2222L172.707 55.5277L179.395 51.5586L179.214 51.253L185.901 47.2838L186.082 47.5894L192.77 43.6202L192.588 43.3147L199.276 39.3455L199.457 39.651L206.144 35.6818L205.963 35.3763L212.651 31.4071L212.832 31.7127L216.176 29.7281C217.111 29.173 218.074 28.6864 219.058 28.268L218.919 27.941C220.953 27.0766 223.076 26.4996 225.229 26.2099L225.276 26.562C227.415 26.274 229.585 26.274 231.724 26.562L231.771 26.2099C233.924 26.4996 236.047 27.0766 238.081 27.941L237.942 28.268C238.926 28.6864 239.889 29.173 240.824 29.7281L244.168 31.7127L244.349 31.4071L251.037 35.3763L250.856 35.6818L257.543 39.651L257.724 39.3455L264.412 43.3147L264.23 43.6202L270.918 47.5894L271.099 47.2839L277.786 51.253L277.605 51.5585L284.293 55.5277L284.474 55.2222L291.161 59.1914L290.98 59.4969L294.324 61.4816L294.331 61.4858L297.722 63.3892L297.896 63.0794L304.677 66.8863L304.503 67.1961L311.284 71.003L311.458 70.6932L318.239 74.5L318.065 74.8098L324.846 78.6167L325.02 78.3069L331.801 82.1138L331.627 82.4236L338.408 86.2304L338.582 85.9206L345.363 89.7275L345.189 90.0373L348.58 91.9408C349.528 92.4731 350.431 93.0639 351.286 93.7071L351.499 93.4233C353.265 94.7524 354.826 96.3023 356.153 98.0218L355.872 98.2389C357.191 99.9477 358.276 101.826 359.096 103.823L359.425 103.688C360.25 105.697 360.812 107.824 361.08 110.018L360.728 110.061C360.857 111.122 360.917 112.2 360.904 113.287L360.858 117.175L361.213 117.18L361.119 124.956L360.764 124.951L360.67 132.727L361.025 132.732L360.932 140.508L360.576 140.503L360.483 148.28L360.838 148.284L360.744 156.06L360.389 156.056L360.295 163.832L360.651 163.836L360.557 171.612L360.202 171.608L360.155 175.496L360.155 175.504L360.202 179.392L360.557 179.388L360.651 187.164L360.295 187.168L360.389 194.944L360.744 194.94L360.838 202.716L360.483 202.72L360.576 210.497L360.932 210.492L361.025 218.268L360.67 218.273L360.764 226.049L361.119 226.044L361.213 233.82L360.858 233.825L360.904 237.713C360.918 238.8 360.857 239.878 360.728 240.939L361.08 240.982C360.812 243.176 360.25 245.303 359.425 247.312L359.096 247.177C358.276 249.174 357.191 251.052 355.872 252.761L356.153 252.978C354.826 254.698 353.265 256.248 351.499 257.577L351.286 257.293C350.431 257.936 349.528 258.527 348.58 259.059L345.189 260.963L345.363 261.272L338.582 265.079L338.408 264.77L331.627 268.576L331.801 268.886L325.02 272.693L324.846 272.383L318.065 276.19L318.239 276.5L311.458 280.307L311.284 279.997L304.503 283.804L304.677 284.114L297.896 287.921L297.722 287.611L294.331 289.514L294.331 289.514L294.324 289.518L290.98 291.503L291.161 291.809L284.474 295.778L284.293 295.472L277.605 299.441L277.786 299.747L271.099 303.716L270.918 303.411L264.23 307.38L264.412 307.685L257.724 311.655L257.543 311.349L250.856 315.318L251.037 315.624L244.349 319.593L244.168 319.287L240.824 321.272C239.889 321.827 238.926 322.314 237.942 322.732L238.081 323.059C236.047 323.923 233.924 324.5 231.771 324.79L231.724 324.438C229.585 324.726 227.415 324.726 225.276 324.438L225.229 324.79C223.076 324.5 220.953 323.923 218.919 323.059L219.058 322.732C218.074 322.314 217.111 321.827 216.176 321.272L212.832 319.287L212.651 319.593L205.963 315.624L206.144 315.318L199.457 311.349L199.276 311.655L192.588 307.685L192.77 307.38L186.082 303.411L185.901 303.716L179.214 299.747L179.395 299.441L172.707 295.472L172.526 295.778L165.839 291.809L166.02 291.503L162.676 289.518Z" stroke="white" stroke-opacity="0.38" stroke-width="0.710567" stroke-dasharray="7.11 7.11"/>
<g filter="url(#filter1_b_796_125597)">
<rect x="285" y="3" width="87.7327" height="39.5192" rx="4.74231" fill="white" fill-opacity="0.09"/>
<rect x="285.221" y="3.22131" width="87.2901" height="39.0766" rx="4.521" stroke="url(#paint2_linear_796_125597)" stroke-width="0.442615"/>
</g>
<path d="M315.644 25.2319C316.005 25.2319 316.318 25.3001 316.582 25.4366C316.848 25.5699 317.051 25.7619 317.191 26.0126C317.334 26.2633 317.405 26.5584 317.405 26.898C317.405 27.2376 317.334 27.5327 317.191 27.7835C317.051 28.031 316.848 28.2214 316.582 28.3547C316.318 28.4848 316.005 28.5499 315.644 28.5499H314.611V25.2319H315.644ZM315.644 28.1928C316.072 28.1928 316.399 28.0802 316.624 27.8549C316.85 27.6264 316.962 27.3074 316.962 26.898C316.962 26.4854 316.848 26.1633 316.62 25.9317C316.394 25.7 316.069 25.5841 315.644 25.5841H315.044V28.1928H315.644ZM319.114 28.5927C318.87 28.5927 318.648 28.5372 318.448 28.4261C318.251 28.315 318.095 28.1579 317.981 27.9548C317.87 27.7485 317.815 27.5105 317.815 27.2408C317.815 26.9742 317.872 26.7393 317.986 26.5362C318.103 26.3299 318.262 26.1728 318.462 26.0649C318.662 25.9539 318.886 25.8983 319.133 25.8983C319.381 25.8983 319.605 25.9539 319.804 26.0649C320.004 26.1728 320.161 26.3284 320.276 26.5315C320.393 26.7346 320.452 26.971 320.452 27.2408C320.452 27.5105 320.392 27.7485 320.271 27.9548C320.154 28.1579 319.993 28.315 319.79 28.4261C319.587 28.5372 319.362 28.5927 319.114 28.5927ZM319.114 28.2119C319.27 28.2119 319.416 28.1754 319.552 28.1024C319.689 28.0294 319.798 27.9199 319.881 27.7739C319.966 27.6279 320.009 27.4502 320.009 27.2408C320.009 27.0313 319.968 26.8536 319.885 26.7076C319.803 26.5616 319.695 26.4537 319.562 26.3839C319.428 26.3109 319.284 26.2744 319.128 26.2744C318.97 26.2744 318.824 26.3109 318.691 26.3839C318.56 26.4537 318.456 26.5616 318.376 26.7076C318.297 26.8536 318.257 27.0313 318.257 27.2408C318.257 27.4534 318.295 27.6327 318.372 27.7787C318.451 27.9247 318.556 28.0342 318.686 28.1072C318.816 28.177 318.959 28.2119 319.114 28.2119ZM320.86 27.2408C320.86 26.971 320.914 26.7362 321.021 26.5362C321.129 26.3331 321.279 26.176 321.469 26.0649C321.663 25.9539 321.883 25.8983 322.131 25.8983C322.451 25.8983 322.715 25.9761 322.921 26.1316C323.13 26.2871 323.268 26.5029 323.335 26.779H322.868C322.824 26.6203 322.737 26.495 322.607 26.4029C322.48 26.3109 322.321 26.2649 322.131 26.2649C321.883 26.2649 321.683 26.3506 321.531 26.5219C321.378 26.6901 321.302 26.9298 321.302 27.2408C321.302 27.555 321.378 27.7977 321.531 27.9691C321.683 28.1405 321.883 28.2262 322.131 28.2262C322.321 28.2262 322.48 28.1817 322.607 28.0929C322.734 28.004 322.821 27.8771 322.868 27.712H323.335C323.265 27.9786 323.126 28.1928 322.916 28.3547C322.707 28.5134 322.445 28.5927 322.131 28.5927C321.883 28.5927 321.663 28.5372 321.469 28.4261C321.279 28.315 321.129 28.1579 321.021 27.9548C320.914 27.7517 320.86 27.5137 320.86 27.2408ZM326.227 25.9412V28.5499H325.793V28.1643C325.711 28.2976 325.595 28.4023 325.446 28.4785C325.3 28.5515 325.138 28.588 324.96 28.588C324.757 28.588 324.575 28.5467 324.413 28.4642C324.251 28.3785 324.122 28.2516 324.027 28.0834C323.935 27.9152 323.889 27.7105 323.889 27.4693V25.9412H324.318V27.4121C324.318 27.6692 324.383 27.8676 324.513 28.0072C324.643 28.1437 324.821 28.2119 325.046 28.2119C325.278 28.2119 325.46 28.1405 325.593 27.9977C325.727 27.8549 325.793 27.647 325.793 27.3741V25.9412H326.227ZM330.095 25.8936C330.298 25.8936 330.479 25.9364 330.638 26.0221C330.796 26.1046 330.922 26.23 331.014 26.3982C331.106 26.5664 331.152 26.7711 331.152 27.0123V28.5499H330.724V27.0742C330.724 26.8139 330.658 26.6156 330.528 26.4791C330.401 26.3395 330.228 26.2696 330.009 26.2696C329.784 26.2696 329.605 26.3426 329.472 26.4886C329.338 26.6314 329.272 26.8393 329.272 27.1122V28.5499H328.843V27.0742C328.843 26.8139 328.778 26.6156 328.648 26.4791C328.521 26.3395 328.348 26.2696 328.129 26.2696C327.904 26.2696 327.724 26.3426 327.591 26.4886C327.458 26.6314 327.391 26.8393 327.391 27.1122V28.5499H326.958V25.9412H327.391V26.3172C327.477 26.1808 327.591 26.0761 327.734 26.0031C327.88 25.9301 328.04 25.8936 328.215 25.8936C328.434 25.8936 328.627 25.9428 328.796 26.0411C328.964 26.1395 329.089 26.2839 329.172 26.4743C329.245 26.2903 329.365 26.1475 329.533 26.0459C329.702 25.9443 329.889 25.8936 330.095 25.8936ZM334.243 27.1456C334.243 27.2281 334.238 27.3153 334.228 27.4074H332.143C332.159 27.6644 332.247 27.866 332.405 28.012C332.567 28.1548 332.762 28.2262 332.991 28.2262C333.178 28.2262 333.334 28.1833 333.457 28.0976C333.584 28.0088 333.673 27.8914 333.724 27.7454H334.19C334.121 27.9961 333.981 28.2008 333.771 28.3595C333.562 28.515 333.302 28.5927 332.991 28.5927C332.743 28.5927 332.521 28.5372 332.324 28.4261C332.131 28.315 331.978 28.1579 331.867 27.9548C331.756 27.7485 331.701 27.5105 331.701 27.2408C331.701 26.971 331.755 26.7346 331.863 26.5315C331.97 26.3284 332.121 26.1728 332.315 26.0649C332.512 25.9539 332.737 25.8983 332.991 25.8983C333.238 25.8983 333.457 25.9523 333.648 26.0602C333.838 26.1681 333.984 26.3172 334.086 26.5077C334.19 26.6949 334.243 26.9075 334.243 27.1456ZM333.795 27.0551C333.795 26.8901 333.759 26.7489 333.686 26.6314C333.613 26.5108 333.513 26.4204 333.386 26.3601C333.262 26.2966 333.124 26.2649 332.972 26.2649C332.753 26.2649 332.565 26.3347 332.41 26.4743C332.258 26.614 332.17 26.8076 332.148 27.0551H333.795ZM336.086 25.8936C336.403 25.8936 336.66 25.9904 336.857 26.184C337.054 26.3744 337.152 26.6505 337.152 27.0123V28.5499H336.723V27.0742C336.723 26.8139 336.658 26.6156 336.528 26.4791C336.398 26.3395 336.22 26.2696 335.995 26.2696C335.767 26.2696 335.584 26.341 335.448 26.4839C335.314 26.6267 335.248 26.8345 335.248 27.1075V28.5499H334.815V25.9412H335.248V26.3125C335.333 26.1792 335.449 26.0761 335.595 26.0031C335.744 25.9301 335.908 25.8936 336.086 25.8936ZM338.388 26.2982V27.8358C338.388 27.9628 338.415 28.0532 338.469 28.1072C338.523 28.1579 338.616 28.1833 338.75 28.1833H339.069V28.5499H338.678C338.437 28.5499 338.256 28.4943 338.136 28.3833C338.015 28.2722 337.955 28.0897 337.955 27.8358V26.2982H337.617V25.9412H337.955V25.2842H338.388V25.9412H339.069V26.2982H338.388Z" fill="white"/>
<path d="M315.372 15.3973V13.4104H318.833V22.5325H316.609V15.3973H315.372ZM320.22 20.8206C320.503 20.5957 320.633 20.4915 320.608 20.5082C321.424 19.8334 322.066 19.2794 322.532 18.8462C323.007 18.413 323.407 17.959 323.732 17.4841C324.057 17.0093 324.219 16.5469 324.219 16.0971C324.219 15.7555 324.14 15.4889 323.982 15.2973C323.823 15.1057 323.586 15.0099 323.269 15.0099C322.953 15.0099 322.703 15.1307 322.52 15.3723C322.345 15.6055 322.257 15.9388 322.257 16.372H320.195C320.212 15.6639 320.362 15.0724 320.645 14.5975C320.937 14.1227 321.316 13.7728 321.782 13.5479C322.257 13.3229 322.782 13.2105 323.357 13.2105C324.348 13.2105 325.094 13.4646 325.594 13.9727C326.102 14.4809 326.356 15.1432 326.356 15.9596C326.356 16.851 326.052 17.6799 325.444 18.4463C324.835 19.2044 324.061 19.9459 323.119 20.6706H326.493V22.4076H320.22V20.8206Z" fill="white"/>
<path d="M344.229 27.814H342.786L342.52 28.5499H342.064L343.261 25.26H343.759L344.951 28.5499H344.495L344.229 27.814ZM344.106 27.4627L343.508 25.7917L342.909 27.4627H344.106ZM345.904 26.4278C345.99 26.2791 346.116 26.1556 346.284 26.0575C346.455 25.9562 346.653 25.9056 346.877 25.9056C347.108 25.9056 347.317 25.961 347.504 26.0718C347.694 26.1825 347.843 26.3392 347.95 26.5417C348.058 26.7411 348.112 26.9738 348.112 27.2396C348.112 27.5023 348.058 27.7365 347.95 27.9422C347.843 28.1479 347.694 28.3078 347.504 28.4217C347.317 28.5356 347.108 28.5926 346.877 28.5926C346.656 28.5926 346.46 28.5436 346.289 28.4454C346.121 28.3442 345.993 28.2191 345.904 28.0704V29.7842H345.472V25.9483H345.904V26.4278ZM347.67 27.2396C347.67 27.0434 347.631 26.8725 347.552 26.7269C347.472 26.5813 347.365 26.4705 347.229 26.3946C347.096 26.3186 346.949 26.2806 346.787 26.2806C346.629 26.2806 346.482 26.3202 346.346 26.3993C346.213 26.4753 346.105 26.5876 346.023 26.7364C345.944 26.882 345.904 27.0513 345.904 27.2444C345.904 27.4406 345.944 27.6131 346.023 27.7618C346.105 27.9074 346.213 28.0198 346.346 28.0989C346.482 28.1748 346.629 28.2128 346.787 28.2128C346.949 28.2128 347.096 28.1748 347.229 28.0989C347.365 28.0198 347.472 27.9074 347.552 27.7618C347.631 27.6131 347.67 27.439 347.67 27.2396ZM349.112 26.4278C349.198 26.2791 349.324 26.1556 349.492 26.0575C349.663 25.9562 349.861 25.9056 350.086 25.9056C350.317 25.9056 350.526 25.961 350.712 26.0718C350.902 26.1825 351.051 26.3392 351.158 26.5417C351.266 26.7411 351.32 26.9738 351.32 27.2396C351.32 27.5023 351.266 27.7365 351.158 27.9422C351.051 28.1479 350.902 28.3078 350.712 28.4217C350.526 28.5356 350.317 28.5926 350.086 28.5926C349.864 28.5926 349.668 28.5436 349.497 28.4454C349.329 28.3442 349.201 28.2191 349.112 28.0704V29.7842H348.68V25.9483H349.112V26.4278ZM350.878 27.2396C350.878 27.0434 350.839 26.8725 350.76 26.7269C350.681 26.5813 350.573 26.4705 350.437 26.3946C350.304 26.3186 350.157 26.2806 349.995 26.2806C349.837 26.2806 349.69 26.3202 349.554 26.3993C349.421 26.4753 349.313 26.5876 349.231 26.7364C349.152 26.882 349.112 27.0513 349.112 27.2444C349.112 27.4406 349.152 27.6131 349.231 27.7618C349.313 27.9074 349.421 28.0198 349.554 28.0989C349.69 28.1748 349.837 28.2128 349.995 28.2128C350.157 28.2128 350.304 28.1748 350.437 28.0989C350.573 28.0198 350.681 27.9074 350.76 27.7618C350.839 27.6131 350.878 27.439 350.878 27.2396ZM352.321 26.3708C352.397 26.2221 352.504 26.1066 352.643 26.0243C352.786 25.942 352.958 25.9008 353.161 25.9008V26.3471H353.047C352.563 26.3471 352.321 26.6098 352.321 27.1352V28.5499H351.889V25.9483H352.321V26.3708ZM354.794 28.5926C354.55 28.5926 354.329 28.5372 354.13 28.4264C353.933 28.3157 353.778 28.159 353.664 27.9565C353.554 27.7507 353.498 27.5134 353.498 27.2444C353.498 26.9785 353.555 26.7443 353.669 26.5417C353.786 26.336 353.944 26.1794 354.144 26.0718C354.343 25.961 354.566 25.9056 354.813 25.9056C355.06 25.9056 355.283 25.961 355.483 26.0718C355.682 26.1794 355.839 26.3344 355.953 26.537C356.07 26.7396 356.128 26.9753 356.128 27.2444C356.128 27.5134 356.068 27.7507 355.948 27.9565C355.831 28.159 355.671 28.3157 355.468 28.4264C355.266 28.5372 355.041 28.5926 354.794 28.5926ZM354.794 28.2128C354.949 28.2128 355.095 28.1764 355.231 28.1036C355.367 28.0308 355.476 27.9216 355.558 27.7761C355.644 27.6305 355.687 27.4532 355.687 27.2444C355.687 27.0355 355.646 26.8582 355.563 26.7126C355.481 26.5671 355.373 26.4595 355.24 26.3898C355.107 26.317 354.963 26.2806 354.808 26.2806C354.65 26.2806 354.505 26.317 354.372 26.3898C354.242 26.4595 354.137 26.5671 354.058 26.7126C353.979 26.8582 353.94 27.0355 353.94 27.2444C353.94 27.4564 353.978 27.6352 354.054 27.7808C354.133 27.9264 354.237 28.0356 354.367 28.1084C354.497 28.178 354.639 28.2128 354.794 28.2128ZM357.665 28.1511L358.472 25.9483H358.932L357.912 28.5499H357.408L356.388 25.9483H356.853L357.665 28.1511ZM361.731 27.1494C361.731 27.2317 361.726 27.3187 361.717 27.4105H359.637C359.653 27.6669 359.74 27.8678 359.899 28.0134C360.06 28.1558 360.255 28.2271 360.482 28.2271C360.669 28.2271 360.824 28.1843 360.948 28.0989C361.074 28.0103 361.163 27.8932 361.214 27.7476H361.679C361.609 27.9976 361.47 28.2017 361.261 28.36C361.052 28.5151 360.793 28.5926 360.482 28.5926C360.236 28.5926 360.014 28.5372 359.818 28.4264C359.625 28.3157 359.473 28.159 359.362 27.9565C359.251 27.7507 359.196 27.5134 359.196 27.2444C359.196 26.9753 359.25 26.7396 359.357 26.537C359.465 26.3344 359.615 26.1794 359.808 26.0718C360.005 25.961 360.229 25.9056 360.482 25.9056C360.729 25.9056 360.948 25.9594 361.138 26.067C361.327 26.1746 361.473 26.3234 361.574 26.5133C361.679 26.7 361.731 26.912 361.731 27.1494ZM361.285 27.0592C361.285 26.8946 361.248 26.7538 361.176 26.6367C361.103 26.5164 361.003 26.4262 360.876 26.3661C360.753 26.3028 360.615 26.2711 360.463 26.2711C360.245 26.2711 360.058 26.3408 359.903 26.48C359.751 26.6193 359.664 26.8123 359.642 27.0592H361.285ZM362.14 27.2396C362.14 26.9738 362.194 26.7411 362.301 26.5417C362.409 26.3392 362.556 26.1825 362.743 26.0718C362.933 25.961 363.145 25.9056 363.379 25.9056C363.581 25.9056 363.77 25.9531 363.944 26.048C364.118 26.1398 364.251 26.2616 364.343 26.4136V25.0368H364.779V28.5499H364.343V28.0609C364.257 28.216 364.131 28.3442 363.963 28.4454C363.795 28.5436 363.599 28.5926 363.374 28.5926C363.143 28.5926 362.933 28.5356 362.743 28.4217C362.556 28.3078 362.409 28.1479 362.301 27.9422C362.194 27.7365 362.14 27.5023 362.14 27.2396ZM364.343 27.2444C364.343 27.0481 364.303 26.8772 364.224 26.7316C364.145 26.5861 364.037 26.4753 363.901 26.3993C363.768 26.3202 363.621 26.2806 363.46 26.2806C363.298 26.2806 363.151 26.3186 363.018 26.3946C362.885 26.4705 362.779 26.5813 362.7 26.7269C362.621 26.8725 362.581 27.0434 362.581 27.2396C362.581 27.439 362.621 27.6131 362.7 27.7618C362.779 27.9074 362.885 28.0198 363.018 28.0989C363.151 28.1748 363.298 28.2128 363.46 28.2128C363.621 28.2128 363.768 28.1748 363.901 28.0989C364.037 28.0198 364.145 27.9074 364.224 27.7618C364.303 27.6131 364.343 27.4406 364.343 27.2444Z" fill="white"/>
<path d="M303.904 13.275H295.569C295.276 13.2828 294.997 13.4053 294.794 13.6161C294.591 13.8269 294.48 14.1089 294.485 14.4008V28.6525C294.48 28.9444 294.591 29.2264 294.794 29.4372C294.997 29.648 295.276 29.7705 295.569 29.7783H307.626C307.92 29.7705 308.198 29.648 308.402 29.4372C308.605 29.2264 308.716 28.9444 308.711 28.6525V17.9431L303.904 13.275ZM303.376 18.5796V14.3595L307.703 18.5796H303.376Z" fill="white"/>
<rect width="1.03186" height="6.6935" transform="matrix(-0.789402 -0.613877 -0.613877 0.789402 304.95 20.7951)" fill="#407BFF"/>
<rect width="1.03186" height="3.04747" transform="matrix(-0.613877 0.789402 0.789402 0.613877 299.069 23.3936)" fill="#407BFF"/>
<mask id="mask0_796_125597" style="mask-type:alpha" maskUnits="userSpaceOnUse" x="74" y="58" width="269" height="257">
<path d="M215.951 62.41C223.677 57.8399 233.278 57.8399 241.004 62.41L285.34 88.6377L330.236 113.758C338.103 118.16 342.932 126.511 342.823 135.525L342.203 186.8L342.823 238.074C342.932 247.088 338.103 255.44 330.236 259.842L285.34 284.962L241.004 311.189C233.278 315.76 223.677 315.76 215.951 311.189L171.615 284.962L119.828 255.986C115.984 253.834 112.787 250.69 110.573 246.881L77.6111 190.188C72.4359 181.287 73.351 170.105 79.9043 162.163L111.019 124.458C112.96 122.106 115.321 120.136 117.981 118.647L171.615 88.6377L215.951 62.41Z" fill="white"/>
</mask>
<g mask="url(#mask0_796_125597)">
<path d="M315.607 183.736C311.751 183.646 307.895 183.557 304.039 183.467C304.002 189.408 303.963 195.345 303.924 201.283C307.818 201.411 311.713 201.539 315.607 201.668C322.22 205.908 328.834 210.149 335.447 214.387V169.484C328.834 174.235 322.22 178.986 315.607 183.736" fill="#3D5169"/>
<path d="M314.936 216.321H208.753V182.985C208.753 172.509 217.243 164.018 227.713 164.018H314.936V216.321" fill="url(#paint3_linear_796_125597)"/>
<path d="M260.482 145.965C260.482 155.934 252.401 164.018 242.432 164.018C232.464 164.018 224.383 155.934 224.383 145.965C224.383 135.992 232.464 127.908 242.432 127.908C252.401 127.908 260.482 135.992 260.482 145.965Z" fill="url(#paint4_linear_796_125597)"/>
<path d="M242.436 139.52C238.885 139.52 235.994 142.41 235.994 145.965C235.994 149.516 238.885 152.406 242.436 152.406C245.986 152.406 248.876 149.516 248.876 145.965C248.876 142.41 245.986 139.52 242.436 139.52ZM242.436 153.208C238.441 153.208 235.192 149.958 235.192 145.965C235.192 141.968 238.441 138.718 242.436 138.718C246.428 138.718 249.677 141.968 249.677 145.965C249.677 149.958 246.428 153.208 242.436 153.208Z" fill="white"/>
<path d="M303.923 145.965C303.923 155.934 295.843 164.018 285.874 164.018C275.907 164.018 267.826 155.934 267.826 145.965C267.826 135.992 275.907 127.908 285.874 127.908C295.843 127.908 303.923 135.992 303.923 145.965Z" fill="url(#paint5_linear_796_125597)"/>
<path d="M285.873 139.52C282.322 139.52 279.431 142.41 279.431 145.965C279.431 149.516 282.322 152.406 285.873 152.406C289.425 152.406 292.313 149.516 292.313 145.965C292.313 142.41 289.425 139.52 285.873 139.52ZM285.873 153.208C281.879 153.208 278.629 149.958 278.629 145.965C278.629 141.968 281.879 138.718 285.873 138.718C289.866 138.718 293.115 141.968 293.115 145.965C293.115 149.958 289.866 153.208 285.873 153.208Z" fill="white"/>
<path d="M247.315 203.801H314.535V180.07H247.315V203.801ZM314.936 204.603H246.914L246.513 204.202V179.669L246.914 179.268H314.936L315.337 179.669V204.202L314.936 204.603Z" fill="white"/>
<path d="M292.091 172.271H242.26L241.859 171.871L242.26 171.47H292.091L292.492 171.871L292.091 172.271Z" fill="white"/>
<path d="M225.371 178.155L217.216 182.864C213.75 176.859 210.283 170.854 206.817 164.849C206.04 163.502 205.265 162.158 204.488 160.814C207.206 159.242 209.925 157.673 212.644 156.101L225.371 178.155" fill="url(#paint6_linear_796_125597)"/>
<path d="M213.823 346.043L210.212 345.405L233.518 213.79L237.129 214.431L213.823 346.043" fill="#292F35"/>
<path d="M307.399 346.043L311.009 345.405L287.703 213.79L284.092 214.431L307.399 346.043Z" fill="#292F35"/>
<path d="M261.462 350.829H257.637V214.387H261.462V350.829Z" fill="#292F35"/>
<path d="M200.837 174.973C199.86 174.694 199.287 173.667 199.564 172.692L206.814 147.135C207.091 146.157 208.117 145.586 209.094 145.862C210.072 146.141 210.645 147.168 210.367 148.146L203.117 173.699C202.84 174.677 201.814 175.248 200.837 174.973Z" fill="url(#paint7_linear_796_125597)"/>
<path d="M105.044 185.691C101.024 186.571 97.0009 187.454 92.981 188.334C92.463 187.815 89.2329 184.466 89.6167 179.523C89.863 176.356 91.4619 174.187 92.1527 173.356C95.4627 173.231 98.7726 173.103 102.083 172.978C103.068 177.217 104.056 181.453 105.044 185.691" fill="#FDAB7D"/>
<path d="M219.614 170.807C215.901 169.802 212.188 168.798 208.472 167.797C208.92 164.754 209.365 161.712 209.809 158.67C213.947 158.615 218.086 158.561 222.221 158.51C222.384 158.705 225.163 162.176 223.743 166.277C222.707 169.268 220.145 170.554 219.614 170.807Z" fill="#FDAB7D"/>
<path d="M207.311 199.312C205.882 198.845 202.063 197.771 197.956 199.779C196.245 200.604 194.977 201.724 194.096 202.648C193.478 199.849 192.842 197.054 192.227 194.258C191.816 192.35 191.381 190.469 190.97 188.587C190.154 184.95 189.335 181.343 188.541 177.731C187.799 174.373 188.015 171.089 187.848 168.07C187.386 159.479 187.366 152.382 187.439 147.437C196.618 154.687 200.386 162.656 201.962 166.855C204.515 173.634 205.426 181.289 206.453 189.912C206.91 193.817 207.15 197.086 207.311 199.312" fill="#FDAB7D"/>
<path d="M208.338 183.231C203.036 186.846 197.756 190.436 192.453 194.025C192.044 192.102 191.606 190.205 191.197 188.308C196.911 186.616 202.626 184.924 208.338 183.231Z" fill="#D38153"/>
<path d="M144.666 155.243C144.1 158.394 144.487 161.241 145.127 163.471C142.898 168.007 140.669 172.518 138.414 177.057C137.439 179.028 136.492 180.976 135.517 182.953C133.62 186.795 131.724 190.615 129.831 194.46C128.19 192.896 126.371 191.255 124.346 189.591C121.705 187.413 119.143 185.567 116.709 183.977C117.48 181.85 121.014 174.62 124.679 167.675C127.906 161.548 131.212 155.627 132.827 153.602C142.77 140.991 148.354 139.273 150.225 138.787C154.427 137.687 158.22 138.122 160.781 138.685C159.809 139.018 146.768 143.759 144.666 155.243Z" fill="#FDAB7D"/>
<path d="M138.415 177.057C137.44 179.028 136.493 180.976 135.518 182.953C131.878 177.851 128.293 172.774 124.68 167.675C128.319 167.47 131.929 167.265 135.569 167.086C136.519 170.391 137.465 173.724 138.415 177.057" fill="#D38153"/>
<path d="M184.411 144.168C181.866 142.725 164.775 133.026 148.897 140.559C144.311 142.735 141.123 145.732 139.105 148.013C138.491 170.406 137.877 192.8 137.263 215.193C144.689 215.008 152.111 214.819 159.534 214.63C166.621 215.599 173.704 216.572 180.788 217.541C185.885 196.245 190.986 174.946 196.084 153.647C193.372 150.601 189.56 147.092 184.411 144.168" fill="#F49662"/>
<path d="M96.2936 180.919C104.008 190.389 111.899 193.831 116.026 195.19C119.925 196.486 126.244 198.449 128.963 195.26C130.19 193.793 130.306 191.683 130.024 189.718C129.684 187.332 128.742 185.211 128.51 184.698C122.13 181.873 115.805 179.116 109.47 176.342C106.885 175.232 104.29 174.099 101.726 172.978C99.9127 175.636 98.1098 178.264 96.2936 180.919" fill="#FDAB7D"/>
<path d="M180.014 130.592L179.538 132.209L177.758 138.437L174.891 148.354L161.546 144.57L166.669 126.808L177.466 129.863L178.51 130.164L180.014 130.592" fill="#F49662"/>
<path d="M178.125 129.698L179.399 132.241L177.611 138.505C176.257 138.238 174.321 137.664 172.377 136.313C167.777 133.125 166.708 128.1 166.471 126.809C169.778 130.555 171.758 131.145 172.979 130.913C173.361 130.838 174.526 130.487 177.318 129.881L178.125 129.698" fill="#0B1C31"/>
<path d="M164.01 116.821C163.944 122.214 166.13 130.07 172.532 133.048C173.358 133.431 177.603 135.202 181.429 133.403C182.316 132.984 184.276 132.062 184.835 130.235C185.312 128.69 184.391 127.76 185.16 126.408C185.928 125.059 187.514 124.806 187.395 124.158C187.313 123.707 186.544 123.812 185.788 123.119C184.683 122.109 184.769 120.423 184.765 119.992C184.745 118.583 185.468 118.056 185.895 116.817C186.742 114.333 185.431 111.778 184.987 110.908C182.67 106.405 177.262 105.592 176.383 105.459C175.298 105.29 170.724 104.589 167.326 107.499C164.092 110.268 164.039 114.486 164.01 116.821" fill="#FDAB7D"/>
<path d="M182.489 119.983C182.426 120.66 182.639 121.236 182.976 121.267C183.309 121.298 183.629 120.771 183.697 120.091C183.764 119.414 183.546 118.838 183.214 118.807C182.881 118.776 182.556 119.303 182.489 119.983" fill="#0B1C31"/>
<path d="M167.116 120.048C166.883 122.594 168.056 124.791 169.739 124.952C171.422 125.12 172.98 123.186 173.212 120.645C173.448 118.099 172.272 115.902 170.588 115.738C168.905 115.573 167.352 117.503 167.116 120.048" fill="#F49662"/>
<path d="M181.023 117.575L181.411 117.369C181.508 117.236 182.354 116.051 183.685 116.124C184.1 116.14 184.5 116.281 184.884 116.535L185.556 116.382L185.408 115.688C184.88 115.333 184.314 115.144 183.732 115.116C182.005 115.035 180.84 116.478 180.631 116.773L180.732 117.478L181.023 117.575" fill="#011531"/>
<path d="M183.601 106.555C185.771 106.874 187.877 106.894 189.422 108.536C190.556 109.742 190.867 111.251 190.939 111.667C191.042 112.272 191.432 114.515 190.405 115.237C189.258 116.036 187.833 113.918 185.221 114.358C183.477 114.652 183.107 115.77 181.634 115.572C180.101 115.366 179.476 114.019 178.867 114.321C178.134 114.685 179.106 116.609 178.043 118.332C177.234 119.643 175.769 119.994 175.427 120.079C174.109 120.397 172.202 120.212 171.732 119.207C171.298 118.291 172.17 116.895 172.266 116.932C172.461 116.996 171.147 123.601 168.937 123.855C167.89 123.976 167.03 122.62 166.214 123.048C165.609 123.362 165.887 124.21 165.282 124.863C164.37 125.856 161.93 125.876 160.632 124.528C158.924 122.757 159.899 119.373 160.938 119.074C161.627 118.876 162.264 120.054 162.826 119.812C163.51 119.526 163.2 117.505 163.092 115.951C163.013 114.769 162.443 109.166 164.888 106.382C166.887 104.106 169.721 103.703 171.015 103.521C175.63 102.864 176.044 105.45 183.601 106.555" fill="#0B1C31"/>
<path d="M208.332 111.276C208.22 112.78 200.688 113.097 191.51 111.987C182.332 110.877 174.98 108.754 175.093 107.255C175.205 105.746 182.737 105.429 191.915 106.544C201.092 107.655 208.444 109.772 208.332 111.276Z" fill="#FCBA00"/>
<path d="M147.645 306.67C147.067 308.993 146.218 311.885 145.206 316.762C143.51 324.996 142.764 332.096 142.392 337.153C142.371 337.643 142.33 338.107 142.31 338.574C137.635 338.496 132.96 338.445 128.305 338.364C128.326 338.055 128.367 337.669 128.388 337.179C128.886 330.804 130.458 310.181 130.768 306.155C131.119 301.664 132.939 277.84 133.29 273.323C134.552 273.117 135.897 272.937 137.345 272.834C138.378 272.757 139.475 272.705 140.614 272.705C143.799 272.731 146.631 273.066 149.032 273.555C149.197 274.924 149.321 276.242 149.424 277.531C150.562 290.799 149.238 300.218 147.645 306.67Z" fill="url(#paint8_linear_796_125597)"/>
<path d="M159.681 209.147C157.273 227.807 154.839 246.442 152.428 265.076C152.248 266.538 152.044 267.974 151.865 269.407C151.686 270.844 151.507 272.306 151.302 273.739L138.618 273.585H133.229C133.28 272.92 131.903 272.178 131.957 271.509C131.983 270.793 132.056 270.05 132.111 269.331C132.162 268.435 132.238 267.51 132.315 266.615C132.494 263.95 132.622 262.002 132.648 261.797C132.878 258.438 134.135 243.342 137.566 204.099C144.947 205.791 152.3 207.455 159.681 209.147Z" fill="#F49662"/>
<path d="M186.787 338.364C182.397 338.445 177.988 338.496 173.601 338.574C173.287 333.41 172.605 325.794 170.85 316.762C169.893 311.884 169.094 308.991 168.546 306.669C167.005 300.01 165.72 290.149 166.986 276.188C167.066 275.334 167.144 274.458 167.239 273.553L175.434 273.424L182.085 273.321C182.416 277.814 184.133 301.663 184.466 306.153C184.778 310.489 186.475 334.028 186.787 338.364" fill="url(#paint9_linear_796_125597)"/>
<path d="M182.169 273.628L174.374 273.807L164.392 273.936C164.323 273.344 164.249 272.751 164.181 272.159C163.893 269.863 163.632 267.542 163.348 265.243C161.114 246.463 158.858 227.708 156.621 208.928C163.727 208.027 170.833 207.122 177.915 206.22C179.173 224.795 180.433 243.343 181.693 261.917C181.788 263.54 181.907 265.14 182.002 266.766C182.12 268.418 182.239 270.043 182.334 271.666C182.381 272.339 182.122 272.958 182.169 273.628Z" fill="#F49662"/>
<path d="M183.709 128.345C183.709 128.857 183.02 129.271 182.168 129.271C181.32 129.271 180.631 128.857 180.631 128.345C180.631 127.838 181.32 127.424 182.168 127.424C183.02 127.424 183.709 127.838 183.709 128.345Z" fill="white"/>
<path d="M148.778 275.148C148.944 276.851 149.069 278.489 149.173 280.092C145.609 278.361 142.024 276.658 138.46 274.956C137.979 274.731 137.48 274.507 137.001 274.25C135.687 273.641 134.353 273 133.042 272.355C132.685 271.458 132.332 270.56 131.999 269.627H133.167C138.523 269.659 143.879 269.691 149.235 269.723C149.09 271.522 148.944 273.353 148.778 275.148" fill="#D57743"/>
<path d="M160.781 220.245C159.86 230.574 158.939 240.93 158.015 251.259C157.324 258.924 156.656 266.589 155.965 274.254C146.589 273.176 137.183 272.127 127.778 271.049C130.215 252.619 132.623 234.164 135.056 215.734C135.261 214.454 135.44 213.172 135.645 211.914C135.85 210.66 136.029 209.454 136.236 208.251C138.491 209.352 140.72 210.455 142.975 211.556C145.587 212.813 148.2 214.093 150.816 215.376C153.608 216.735 156.4 218.12 159.221 219.477C159.732 219.733 160.27 219.989 160.781 220.245" fill="url(#paint10_linear_796_125597)"/>
<path d="M181.861 272.089C179.708 272.998 177.552 273.871 175.418 274.777C172.628 275.945 169.858 277.109 167.087 278.245C167.166 277.174 167.243 276.074 167.337 274.938C167.282 274.195 167.221 273.451 167.166 272.707C172.071 272.509 176.957 272.283 181.861 272.089Z" fill="#D57743"/>
<path d="M188.252 271.049C178.847 272.127 169.47 273.176 160.065 274.254C159.374 266.589 158.709 258.924 158.015 251.259C157.094 240.93 156.17 230.574 155.249 220.245C154.376 219.298 153.506 218.325 152.633 217.375C152.019 216.71 151.43 216.041 150.816 215.376C150.122 214.608 149.406 213.837 148.715 213.069C159.477 213.939 170.238 214.838 180.999 215.734C181.485 219.477 181.975 223.194 182.461 226.937C184.383 241.649 186.33 256.362 188.252 271.049" fill="url(#paint11_linear_796_125597)"/>
<path d="M160.782 234.068L161.182 233.668V220.251L160.782 219.851L160.383 220.251V233.668L160.782 234.068Z" fill="#ECECEC"/>
<path d="M157.785 238.342L158.115 238.169L161.105 233.898L161.006 233.342L160.449 233.441L157.456 237.712L157.558 238.268L157.785 238.342" fill="#ECECEC"/>
<path d="M157.898 250.3L158.297 249.893L158.189 237.935L157.789 237.542L157.389 237.942L157.498 249.9L157.898 250.3Z" fill="#ECECEC"/>
<path d="M156.643 232.682L157.042 232.273L156.799 218.818L156.4 218.424L156 218.83L156.243 232.289L156.643 232.682Z" fill="#ECECEC"/>
<path d="M138.145 181.018C133.006 175.925 127.87 170.838 122.734 165.749C125.65 159.152 130.738 150.541 139.664 143.528C141.276 142.261 142.888 141.148 144.471 140.166C145.488 144.773 146.505 149.382 147.521 153.989C144.397 162.998 141.269 172.006 138.145 181.018" fill="#2D77BF"/>
<path d="M209.676 182.617C203.024 185.679 196.369 188.74 189.714 191.802C187.258 185.18 184.802 178.561 182.346 171.939C186.113 164.786 189.877 157.636 193.645 150.483C196.727 153.135 201.748 158.151 205.407 165.957C208.557 172.678 209.43 178.766 209.676 182.617" fill="#2D77BF"/>
<path d="M216.917 170.522C215.459 186.079 210.987 195.64 208.438 200.196C206.037 204.506 202.075 211.355 198.449 210.205C196.43 209.559 195.099 205.716 194.981 205.381C194.143 203.012 194.116 200.637 194.11 199.521C194.103 198.339 194.195 197.339 194.286 196.617C197.696 190.004 201.115 183.13 204.526 175.988C206.026 172.845 207.491 169.72 208.919 166.618C211.594 167.928 214.244 169.215 216.917 170.522Z" fill="#FDAB7D"/>
<path d="M183.227 233.369C175.383 229.814 167.514 226.265 159.673 222.715C157.44 221.691 155.233 220.704 152.996 219.713C147.259 217.113 141.519 214.514 135.779 211.914C138.272 211.695 140.741 211.549 143.208 211.402C145.856 213.198 148.504 215.025 151.155 216.857C150.452 215.761 149.726 214.66 149.026 213.563C159.933 214.806 170.839 216.09 181.746 217.369C182.238 222.715 182.734 228.024 183.227 233.369Z" fill="#929292"/>
<path d="M189.069 224.752C170.652 220.318 152.235 215.887 133.817 211.454C134.997 199.259 137.845 178.826 141.847 165.899C143.606 154.402 142.334 150.681 144.47 140.166C147.598 139.12 151.55 138.093 156.187 137.549C160.121 137.089 158.16 136.658 163.7 136.658C163.873 139.915 169.274 143.01 172.094 143.103C174.301 143.173 176.437 141.775 177.461 139.577C180.057 140.62 183.163 142.137 186.412 144.36C191.346 147.738 194.768 151.481 196.994 154.36C194.992 158.727 192.993 163.09 190.991 167.454C190.352 186.552 189.712 205.65 189.069 224.752Z" fill="url(#paint12_linear_796_125597)"/>
<path d="M217.645 182.646H212.723V154.05H217.645V182.646Z" fill="url(#paint13_linear_796_125597)"/>
<path d="M218.646 167.796H209.675C208.559 167.31 207.824 166.209 207.808 164.997C207.792 163.753 208.531 162.61 209.675 162.115C212.666 162.115 215.656 162.115 218.646 162.115C218.895 162.316 219.772 163.071 219.98 164.354C220.302 166.334 218.742 167.713 218.646 167.796Z" fill="#F49662"/>
<path d="M217.842 168.02C219.668 167.793 221.056 166.603 221.274 165.125C221.28 165.051 221.536 163.276 220.18 162.326C219.326 161.728 218.37 161.846 217.999 161.926L217.695 162.396L218.168 162.703C218.373 162.658 219.109 162.55 219.723 162.982C220.669 163.647 220.481 164.994 220.481 165.01C220.317 166.136 219.211 167.044 217.794 167.223L217.446 167.671L217.842 168.02" fill="#011531"/>
<path d="M209.677 162.515H212.815L213.214 162.115L212.815 161.715H209.677L209.278 162.115L209.677 162.515Z" fill="#011531"/>
<path d="M209.24 168.196H212.576L212.976 167.796L212.576 167.396H209.24L208.841 167.796L209.24 168.196Z" fill="#011531"/>
<path d="M99.1553 177.559C95.8869 177.879 92.6154 178.202 89.347 178.522C89.2638 178.458 88.1637 177.611 88.2628 176.254C88.3268 175.368 88.8641 174.795 89.024 174.635C92.4011 174.303 95.7782 173.97 99.1553 173.634V177.559Z" fill="#FDAB7D"/>
<path d="M96.1488 182.889H90.8433V179.572H96.1488C96.2192 179.642 97.1147 180.56 96.8428 181.744C96.7053 182.348 96.3279 182.729 96.1488 182.889Z" fill="#FDAB7D"/>
<path d="M96.4491 185.723H91.1436V182.406H96.4491C96.5195 182.476 97.4117 183.394 97.1431 184.578C97.0024 185.182 96.6282 185.566 96.4491 185.723Z" fill="#F49662"/>
<path d="M96.1488 187.834C95.0455 187.953 93.9454 188.071 92.8421 188.19C92.1769 186.964 91.5117 185.742 90.8433 184.517H96.1488C96.2192 184.587 97.1147 185.506 96.8428 186.689C96.7053 187.294 96.3279 187.678 96.1488 187.834Z" fill="#F49662"/>
<path d="M91.961 183.209L96.3998 182.806L96.7612 182.371L96.3263 182.009L91.9226 182.409L91.5645 182.844L91.961 183.209" fill="#011531"/>
<path d="M92.3606 186.123L96.5692 185.8L96.937 185.372L96.5373 185.004L92.3286 185.327L91.9609 185.755L92.3606 186.123Z" fill="#011531"/>
<path d="M89.1303 178.922L90.4543 178.817L90.8252 178.385L90.3935 178.017L89.2678 178.11C88.9416 177.806 88.4139 177.217 88.4811 176.577L88.513 176.411L88.222 175.928L87.7391 176.219L87.6848 176.5C87.5793 177.559 88.3852 178.413 88.8713 178.829L89.1303 178.922" fill="#011531"/>
<path d="M95.8833 178.449L100.54 178.199L100.917 177.78L100.517 177.399L95.8609 177.649L95.4836 178.068L95.8833 178.449Z" fill="#011531"/>
<path d="M183.434 180.159C180.5 180.836 179.083 182.234 177 182C174.75 181.747 172.5 180 169.934 178.659C170.463 173.852 170.404 169.465 170.934 164.659C175.736 164.94 180.131 166.72 184.934 167C184.435 172.054 183.932 175.106 183.434 180.159Z" fill="#3F84C8"/>
<path d="M188.018 108.085C188.032 109.659 183.519 111.28 174.498 114.52C168.907 116.527 164.2 117.92 161.01 118.806C159.397 113.206 160.605 107.481 164.55 104.265C172.553 97.742 184.632 97.8757 188.018 108.085Z" fill="url(#paint14_linear_796_125597)"/>
</g>
<path d="M249.923 287.117C249.906 286.185 250.103 285.344 250.103 285.344C250.314 284.52 250.75 283.495 251.624 282.385C250.728 282.839 248.957 283.584 246.626 283.573C243.771 283.563 241.695 282.428 240.831 281.888C241.356 282.327 243.891 284.545 243.977 288.009C244.007 289.264 243.71 290.304 243.417 291.024C243.805 290.843 244.336 290.628 244.984 290.467C244.984 290.467 246.107 290.197 247.244 290.254C248.802 290.33 251.202 291.532 253.269 293.915C252.922 293.526 249.988 290.175 249.923 287.117" fill="#FCBA00"/>
<path d="M265.954 289.375C265.949 289.02 266.025 288.699 266.025 288.699C266.105 288.383 266.27 287.994 266.604 287.57C266.261 287.744 265.587 288.028 264.697 288.023C263.608 288.019 262.817 287.588 262.489 287.382C262.688 287.549 263.656 288.394 263.688 289.717C263.698 290.193 263.585 290.589 263.475 290.865L264.072 290.652C264.072 290.652 264.501 290.549 264.932 290.57C265.529 290.6 266.443 291.06 267.23 291.967C267.099 291.819 265.98 290.543 265.954 289.375" fill="#FCBA00"/>
<path d="M256.199 304.825C256.186 304.174 256.323 303.588 256.325 303.586C256.472 303.01 256.775 302.295 257.387 301.519C256.76 301.836 255.524 302.355 253.894 302.349C251.899 302.342 250.451 301.549 249.848 301.172C250.213 301.479 251.983 303.028 252.044 305.449C252.064 306.324 251.856 307.052 251.653 307.555C251.922 307.427 252.294 307.276 252.748 307.166C252.748 307.166 253.531 306.976 254.324 307.016C255.415 307.069 257.091 307.91 258.536 309.574C258.292 309.302 256.244 306.961 256.199 304.825Z" fill="#FCBA00"/>
<path d="M50.3889 70.2465C51.1179 70.8268 51.6405 71.5141 51.6405 71.5141C52.1422 72.2017 52.6551 73.1902 52.9549 74.5702C53.1745 73.5908 53.7279 71.7511 55.2203 69.9596C57.0459 67.7646 59.242 66.8864 60.2089 66.5641C59.536 66.6891 56.2123 67.2323 53.4855 65.0933C52.4989 64.3168 51.8863 63.4261 51.5175 62.7418C51.4097 63.1568 51.2378 63.7029 50.9494 64.3045C50.9494 64.3045 50.4422 65.3428 49.6748 66.1833C48.6246 67.3366 46.1694 68.4224 43.0155 68.4988C43.5372 68.4793 47.9886 68.3499 50.3889 70.2465" fill="#FCBA00"/>
<path d="M38.4411 81.1716C38.7186 81.3932 38.9179 81.6565 38.9179 81.6565C39.1101 81.9192 39.3059 82.2946 39.4194 82.8217C39.5043 82.4469 39.7136 81.7458 40.2843 81.0633C40.9805 80.2258 41.8168 79.8905 42.1844 79.7685C41.9288 79.8153 40.6612 80.0234 39.6209 79.2064C39.2469 78.9104 39.0135 78.5717 38.8705 78.3113L38.6548 78.9072C38.6548 78.9072 38.4613 79.3032 38.1708 79.6225C37.7676 80.0635 36.8313 80.4759 35.6304 80.506C35.828 80.4984 37.525 80.448 38.4411 81.1716" fill="#FCBA00"/>
<path d="M32.737 63.8122C33.2481 64.217 33.6123 64.6962 33.6128 64.6984C33.9633 65.1785 34.3216 65.8677 34.53 66.8335C34.6849 66.1477 35.0713 64.8645 36.114 63.611C37.3894 62.0774 38.9229 61.4653 39.5975 61.2403C39.1286 61.3261 36.8072 61.7056 34.9012 60.2109C34.2138 59.6694 33.7852 59.0455 33.526 58.5693C33.4531 58.8578 33.333 59.241 33.1288 59.6603C33.1288 59.6603 32.777 60.3859 32.2414 60.972C31.5055 61.7795 29.7907 62.5366 27.587 62.5914C27.9522 62.5766 31.0614 62.4876 32.737 63.8122Z" fill="#FCBA00"/>
<g filter="url(#filter2_b_796_125597)">
<rect x="71.1826" y="2" width="86.9423" height="49.0038" rx="3.75804" fill="#FCFBFC" fill-opacity="0.12"/>
<rect x="71.3802" y="2.1976" width="86.5471" height="48.6087" rx="3.56044" stroke="url(#paint15_linear_796_125597)" stroke-width="0.395192"/>
</g>
<rect x="82.8418" y="35.3972" width="4.64407" height="8.82373" rx="2.32203" fill="#F0BF52"/>
<rect x="95.8452" y="31.2174" width="4.64407" height="13.0034" rx="2.32203" fill="#F0BF52"/>
<rect x="108.849" y="23.3226" width="4.64407" height="20.8983" rx="2.32203" fill="#F0BF52"/>
<rect x="121.852" y="16.8208" width="4.64407" height="27.4" rx="2.32203" fill="#F0BF52"/>
<rect x="134.855" y="31.2174" width="4.64407" height="13.0034" rx="2.32203" fill="#F0BF52"/>
<ellipse cx="81.4484" cy="12.4091" rx="1.85763" ry="1.62542" fill="#67C354"/>
<circle cx="87.2538" cy="12.4091" r="1.62542" fill="#F1BF50"/>
<circle cx="93.291" cy="12.4091" r="1.62542" fill="#E76C62"/>
<g filter="url(#filter3_bd_796_125597)">
<rect x="151" y="314" width="38.7288" height="38.7288" rx="3.95192" fill="#00B2FF" fill-opacity="0.74" shape-rendering="crispEdges"/>
<rect x="151.395" y="314.395" width="37.9385" height="37.9385" rx="3.55673" stroke="url(#paint16_linear_796_125597)" stroke-width="0.790385" shape-rendering="crispEdges"/>
</g>
<path d="M176.45 332.574C176.569 332.219 176.687 331.863 176.687 331.389C176.687 328.78 174.553 326.646 171.945 326.646C170.167 326.646 168.507 327.713 167.796 329.255C167.44 329.136 166.966 329.017 166.61 329.017C164.95 329.017 163.646 330.322 163.646 331.981C163.646 332.219 163.646 332.456 163.765 332.574C161.631 332.93 160.089 334.59 160.089 336.724C160.089 338.976 161.986 340.873 164.239 340.873H168.388V337.316H164.832L170.167 331.981L175.502 337.316H171.945V340.873H176.095C178.347 340.873 180.244 338.976 180.244 336.724C180.244 334.59 178.584 332.811 176.45 332.574Z" fill="white"/>
<rect x="312.221" y="293.221" width="99.9362" height="53.8801" rx="3.36173" fill="white" fill-opacity="0.12" stroke="url(#paint17_linear_796_125597)" stroke-width="0.442615"/>
<path d="M329.124 334.037L342.999 321.342" stroke="white" stroke-width="1.18093"/>
<path d="M372.228 334.037L391.713 320.457" stroke="white" stroke-width="1.18093"/>
<path d="M349.79 320.161L365.437 334.037" stroke="white" stroke-width="1.18093"/>
<circle cx="326.467" cy="336.399" r="3.98563" stroke="#00F0FF" stroke-width="2.06662"/>
<circle cx="347.133" cy="318.685" r="3.98563" stroke="#FDD800" stroke-width="2.06662"/>
<circle cx="368.98" cy="335.218" r="3.98563" stroke="#41FFA4" stroke-width="2.06662"/>
<circle cx="395.551" cy="319.276" r="3.98563" stroke="white" stroke-width="2.06662"/>
<path d="M321.855 298.203V299.014H320.753V302.362H319.74V299.014H318.638V298.203H321.855ZM323.377 299.607C323.495 299.425 323.643 299.283 323.821 299.18C323.999 299.074 324.196 299.02 324.414 299.02V300.093H324.135C323.882 300.093 323.693 300.148 323.566 300.259C323.44 300.365 323.377 300.555 323.377 300.828V302.362H322.364V299.056H323.377V299.607ZM324.696 300.703C324.696 300.363 324.76 300.065 324.886 299.808C325.016 299.552 325.192 299.354 325.413 299.216C325.634 299.078 325.881 299.009 326.154 299.009C326.387 299.009 326.59 299.056 326.764 299.151C326.942 299.246 327.078 299.37 327.173 299.524V299.056H328.186V302.362H327.173V301.894C327.074 302.048 326.936 302.172 326.758 302.267C326.584 302.362 326.381 302.409 326.148 302.409C325.879 302.409 325.634 302.34 325.413 302.202C325.192 302.06 325.016 301.86 324.886 301.604C324.76 301.343 324.696 301.043 324.696 300.703ZM327.173 300.709C327.173 300.456 327.102 300.257 326.96 300.111C326.821 299.964 326.652 299.891 326.45 299.891C326.249 299.891 326.077 299.964 325.935 300.111C325.796 300.253 325.727 300.45 325.727 300.703C325.727 300.956 325.796 301.157 325.935 301.307C326.077 301.454 326.249 301.527 326.45 301.527C326.652 301.527 326.821 301.454 326.96 301.307C327.102 301.161 327.173 300.962 327.173 300.709ZM330.934 299.02C331.321 299.02 331.629 299.147 331.858 299.4C332.091 299.648 332.207 299.992 332.207 300.431V302.362H331.2V300.567C331.2 300.346 331.143 300.174 331.028 300.051C330.914 299.929 330.76 299.868 330.566 299.868C330.373 299.868 330.219 299.929 330.104 300.051C329.99 300.174 329.932 300.346 329.932 300.567V302.362H328.919V299.056H329.932V299.494C330.035 299.348 330.173 299.234 330.347 299.151C330.521 299.064 330.716 299.02 330.934 299.02ZM334.256 302.409C333.968 302.409 333.711 302.36 333.486 302.261C333.261 302.163 333.083 302.028 332.953 301.858C332.823 301.685 332.75 301.491 332.734 301.278H333.735C333.747 301.392 333.8 301.485 333.895 301.556C333.99 301.627 334.106 301.663 334.245 301.663C334.371 301.663 334.468 301.639 334.535 301.592C334.606 301.54 334.642 301.475 334.642 301.396C334.642 301.301 334.592 301.232 334.493 301.189C334.395 301.142 334.235 301.09 334.014 301.035C333.777 300.98 333.579 300.922 333.421 300.863C333.263 300.8 333.127 300.703 333.012 300.573C332.898 300.438 332.84 300.259 332.84 300.034C332.84 299.844 332.892 299.672 332.994 299.518C333.101 299.36 333.255 299.236 333.457 299.145C333.662 299.054 333.905 299.009 334.185 299.009C334.6 299.009 334.926 299.111 335.163 299.317C335.404 299.522 335.542 299.795 335.578 300.134H334.642C334.626 300.02 334.574 299.929 334.488 299.862C334.405 299.795 334.294 299.761 334.156 299.761C334.037 299.761 333.946 299.785 333.883 299.832C333.82 299.876 333.788 299.937 333.788 300.016C333.788 300.111 333.838 300.182 333.937 300.229C334.039 300.276 334.197 300.324 334.411 300.371C334.655 300.434 334.855 300.498 335.009 300.561C335.163 300.62 335.297 300.719 335.412 300.857C335.53 300.991 335.592 301.173 335.596 301.402C335.596 301.596 335.54 301.77 335.43 301.924C335.323 302.074 335.167 302.192 334.962 302.279C334.76 302.366 334.525 302.409 334.256 302.409ZM336.014 300.703C336.014 300.363 336.077 300.065 336.204 299.808C336.334 299.552 336.51 299.354 336.731 299.216C336.952 299.078 337.199 299.009 337.471 299.009C337.704 299.009 337.908 299.056 338.082 299.151C338.259 299.246 338.396 299.37 338.491 299.524V299.056H339.504V302.362H338.491V301.894C338.392 302.048 338.254 302.172 338.076 302.267C337.902 302.362 337.699 302.409 337.466 302.409C337.197 302.409 336.952 302.34 336.731 302.202C336.51 302.06 336.334 301.86 336.204 301.604C336.077 301.343 336.014 301.043 336.014 300.703ZM338.491 300.709C338.491 300.456 338.419 300.257 338.277 300.111C338.139 299.964 337.969 299.891 337.768 299.891C337.566 299.891 337.394 299.964 337.252 300.111C337.114 300.253 337.045 300.45 337.045 300.703C337.045 300.956 337.114 301.157 337.252 301.307C337.394 301.454 337.566 301.527 337.768 301.527C337.969 301.527 338.139 301.454 338.277 301.307C338.419 301.161 338.491 300.962 338.491 300.709ZM340.035 300.709C340.035 300.365 340.104 300.065 340.243 299.808C340.385 299.552 340.58 299.354 340.829 299.216C341.082 299.078 341.37 299.009 341.694 299.009C342.109 299.009 342.455 299.117 342.731 299.334C343.012 299.552 343.195 299.858 343.282 300.253H342.204C342.113 300 341.937 299.874 341.676 299.874C341.491 299.874 341.343 299.947 341.232 300.093C341.121 300.235 341.066 300.44 341.066 300.709C341.066 300.978 341.121 301.185 341.232 301.331C341.343 301.473 341.491 301.544 341.676 301.544C341.937 301.544 342.113 301.418 342.204 301.165H343.282C343.195 301.552 343.012 301.856 342.731 302.078C342.451 302.299 342.105 302.409 341.694 302.409C341.37 302.409 341.082 302.34 340.829 302.202C340.58 302.064 340.385 301.866 340.243 301.61C340.104 301.353 340.035 301.053 340.035 300.709ZM345.667 301.503V302.362H345.151C344.784 302.362 344.497 302.273 344.292 302.095C344.087 301.914 343.984 301.619 343.984 301.213V299.897H343.581V299.056H343.984V298.25H344.997V299.056H345.661V299.897H344.997V301.224C344.997 301.323 345.021 301.394 345.068 301.438C345.116 301.481 345.195 301.503 345.305 301.503H345.667ZM346.741 298.712C346.563 298.712 346.417 298.661 346.302 298.558C346.192 298.452 346.136 298.321 346.136 298.167C346.136 298.009 346.192 297.879 346.302 297.776C346.417 297.67 346.563 297.616 346.741 297.616C346.914 297.616 347.057 297.67 347.167 297.776C347.282 297.879 347.339 298.009 347.339 298.167C347.339 298.321 347.282 298.452 347.167 298.558C347.057 298.661 346.914 298.712 346.741 298.712ZM347.244 299.056V302.362H346.231V299.056H347.244ZM349.483 302.409C349.159 302.409 348.867 302.34 348.606 302.202C348.35 302.064 348.146 301.866 347.996 301.61C347.85 301.353 347.777 301.053 347.777 300.709C347.777 300.369 347.852 300.071 348.002 299.814C348.152 299.554 348.358 299.354 348.618 299.216C348.879 299.078 349.171 299.009 349.495 299.009C349.819 299.009 350.111 299.078 350.372 299.216C350.633 299.354 350.838 299.554 350.988 299.814C351.138 300.071 351.213 300.369 351.213 300.709C351.213 301.049 351.136 301.349 350.982 301.61C350.832 301.866 350.625 302.064 350.36 302.202C350.1 302.34 349.807 302.409 349.483 302.409ZM349.483 301.533C349.677 301.533 349.841 301.461 349.975 301.319C350.113 301.177 350.182 300.974 350.182 300.709C350.182 300.444 350.115 300.241 349.981 300.099C349.851 299.957 349.689 299.885 349.495 299.885C349.298 299.885 349.134 299.957 349.003 300.099C348.873 300.237 348.808 300.44 348.808 300.709C348.808 300.974 348.871 301.177 348.998 301.319C349.128 301.461 349.29 301.533 349.483 301.533ZM353.765 299.02C354.153 299.02 354.461 299.147 354.69 299.4C354.923 299.648 355.039 299.992 355.039 300.431V302.362H354.032V300.567C354.032 300.346 353.975 300.174 353.86 300.051C353.746 299.929 353.592 299.868 353.398 299.868C353.205 299.868 353.05 299.929 352.936 300.051C352.821 300.174 352.764 300.346 352.764 300.567V302.362H351.751V299.056H352.764V299.494C352.867 299.348 353.005 299.234 353.179 299.151C353.353 299.064 353.548 299.02 353.765 299.02ZM357.088 302.409C356.8 302.409 356.543 302.36 356.318 302.261C356.093 302.163 355.915 302.028 355.785 301.858C355.654 301.685 355.581 301.491 355.566 301.278H356.567C356.579 301.392 356.632 301.485 356.727 301.556C356.822 301.627 356.938 301.663 357.076 301.663C357.203 301.663 357.3 301.639 357.367 301.592C357.438 301.54 357.473 301.475 357.473 301.396C357.473 301.301 357.424 301.232 357.325 301.189C357.227 301.142 357.067 301.09 356.845 301.035C356.608 300.98 356.411 300.922 356.253 300.863C356.095 300.8 355.959 300.703 355.844 300.573C355.729 300.438 355.672 300.259 355.672 300.034C355.672 299.844 355.724 299.672 355.826 299.518C355.933 299.36 356.087 299.236 356.288 299.145C356.494 299.054 356.737 299.009 357.017 299.009C357.432 299.009 357.758 299.111 357.995 299.317C358.236 299.522 358.374 299.795 358.41 300.134H357.473C357.458 300.02 357.406 299.929 357.319 299.862C357.236 299.795 357.126 299.761 356.988 299.761C356.869 299.761 356.778 299.785 356.715 299.832C356.652 299.876 356.62 299.937 356.62 300.016C356.62 300.111 356.67 300.182 356.768 300.229C356.871 300.276 357.029 300.324 357.242 300.371C357.487 300.434 357.687 300.498 357.841 300.561C357.995 300.62 358.129 300.719 358.244 300.857C358.362 300.991 358.423 301.173 358.427 301.402C358.427 301.596 358.372 301.77 358.261 301.924C358.155 302.074 357.999 302.192 357.793 302.279C357.592 302.366 357.357 302.409 357.088 302.409Z" fill="white"/>
<path d="M277.786 288L277.785 309.671L310.267 310.494" stroke="white" stroke-width="0.692109" stroke-dasharray="2.77 2.77"/>
<circle cx="309.574" cy="310.494" r="1.73027" fill="white"/>
<path d="M99.0514 51.0039L99.0509 72.6751L131.533 73.4976" stroke="white" stroke-width="0.692109" stroke-dasharray="2.77 2.77"/>
<circle cx="98.9959" cy="51.1534" r="1.73027" fill="white"/>
<path d="M70.0372 122.726L103.118 122.726" stroke="white" stroke-width="0.692109" stroke-dasharray="2.77 2.77"/>
<circle r="1.73027" transform="matrix(-1 0 0 1 70.7302 122.726)" fill="white"/>
<rect x="0.210791" y="270.211" width="117.578" height="49.5784" rx="2.59975" fill="white" fill-opacity="0.19" stroke="url(#paint18_linear_796_125597)" stroke-width="0.421582"/>
<rect x="8" y="306" width="101" height="6" rx="3" fill="white" fill-opacity="0.15"/>
<rect x="8" y="306" width="60" height="6" rx="3" fill="#F3BE4E"/>
<path d="M29.6437 282.165V285.289C29.6437 285.602 29.7206 285.842 29.8743 286.011C30.0281 286.18 30.2537 286.264 30.5513 286.264C30.8489 286.264 31.077 286.18 31.2358 286.011C31.3945 285.842 31.4738 285.602 31.4738 285.289V282.165H32.746V285.282C32.746 285.748 32.6468 286.143 32.4484 286.465C32.25 286.787 31.9822 287.03 31.6449 287.194C31.3126 287.358 30.9407 287.439 30.529 287.439C30.1174 287.439 29.7479 287.36 29.4205 287.201C29.0981 287.038 28.8427 286.795 28.6542 286.472C28.4658 286.145 28.3715 285.748 28.3715 285.282V282.165H29.6437ZM34.9115 283.824C35.0354 283.63 35.2066 283.474 35.4248 283.355C35.643 283.236 35.8984 283.177 36.191 283.177C36.5333 283.177 36.8432 283.263 37.121 283.437C37.3987 283.611 37.617 283.859 37.7757 284.181C37.9393 284.503 38.0212 284.878 38.0212 285.304C38.0212 285.731 37.9393 286.108 37.7757 286.435C37.617 286.758 37.3987 287.008 37.121 287.187C36.8432 287.36 36.5333 287.447 36.191 287.447C35.9034 287.447 35.648 287.387 35.4248 287.268C35.2066 287.149 35.0354 286.996 34.9115 286.807V289.366H33.6393V283.236H34.9115V283.824ZM36.7267 285.304C36.7267 284.987 36.6374 284.739 36.4589 284.56C36.2853 284.377 36.0695 284.285 35.8116 284.285C35.5587 284.285 35.3429 284.377 35.1644 284.56C34.9908 284.744 34.904 284.994 34.904 285.312C34.904 285.629 34.9908 285.88 35.1644 286.063C35.3429 286.247 35.5587 286.338 35.8116 286.338C36.0646 286.338 36.2803 286.247 36.4589 286.063C36.6374 285.875 36.7267 285.622 36.7267 285.304ZM39.9607 281.882V287.387H38.6886V281.882H39.9607ZM42.7723 287.447C42.3656 287.447 41.9986 287.36 41.6712 287.187C41.3489 287.013 41.0934 286.765 40.905 286.443C40.7215 286.12 40.6297 285.743 40.6297 285.312C40.6297 284.885 40.7239 284.511 40.9124 284.188C41.1009 283.861 41.3588 283.611 41.6861 283.437C42.0134 283.263 42.3805 283.177 42.7872 283.177C43.1938 283.177 43.5609 283.263 43.8882 283.437C44.2155 283.611 44.4734 283.861 44.6619 284.188C44.8504 284.511 44.9446 284.885 44.9446 285.312C44.9446 285.738 44.8479 286.115 44.6545 286.443C44.466 286.765 44.2056 287.013 43.8733 287.187C43.546 287.36 43.179 287.447 42.7723 287.447ZM42.7723 286.346C43.0153 286.346 43.2211 286.257 43.3898 286.078C43.5633 285.9 43.6501 285.644 43.6501 285.312C43.6501 284.98 43.5658 284.724 43.3972 284.546C43.2335 284.367 43.0302 284.278 42.7872 284.278C42.5392 284.278 42.3333 284.367 42.1697 284.546C42.006 284.719 41.9242 284.975 41.9242 285.312C41.9242 285.644 42.0035 285.9 42.1622 286.078C42.3259 286.257 42.5293 286.346 42.7723 286.346ZM45.3666 285.304C45.3666 284.878 45.4459 284.503 45.6046 284.181C45.7683 283.859 45.989 283.611 46.2668 283.437C46.5445 283.263 46.8545 283.177 47.1967 283.177C47.4893 283.177 47.7447 283.236 47.963 283.355C48.1861 283.474 48.3573 283.63 48.4763 283.824V283.236H49.7484V287.387H48.4763V286.8C48.3523 286.993 48.1787 287.149 47.9555 287.268C47.7373 287.387 47.4819 287.447 47.1893 287.447C46.852 287.447 46.5445 287.36 46.2668 287.187C45.989 287.008 45.7683 286.758 45.6046 286.435C45.4459 286.108 45.3666 285.731 45.3666 285.304ZM48.4763 285.312C48.4763 284.994 48.387 284.744 48.2085 284.56C48.0349 284.377 47.8216 284.285 47.5687 284.285C47.3157 284.285 47.1 284.377 46.9214 284.56C46.7478 284.739 46.661 284.987 46.661 285.304C46.661 285.622 46.7478 285.875 46.9214 286.063C47.1 286.247 47.3157 286.338 47.5687 286.338C47.8216 286.338 48.0349 286.247 48.2085 286.063C48.387 285.88 48.4763 285.629 48.4763 285.312ZM50.4158 285.304C50.4158 284.878 50.4952 284.503 50.6539 284.181C50.8176 283.859 51.0383 283.611 51.316 283.437C51.5938 283.263 51.9037 283.177 52.246 283.177C52.5187 283.177 52.7667 283.234 52.9899 283.348C53.2181 283.462 53.3966 283.616 53.5256 283.809V281.882H54.7977V287.387H53.5256V286.792C53.4065 286.991 53.2354 287.149 53.0122 287.268C52.794 287.387 52.5386 287.447 52.246 287.447C51.9037 287.447 51.5938 287.36 51.316 287.187C51.0383 287.008 50.8176 286.758 50.6539 286.435C50.4952 286.108 50.4158 285.731 50.4158 285.304ZM53.5256 285.312C53.5256 284.994 53.4363 284.744 53.2577 284.56C53.0841 284.377 52.8709 284.285 52.6179 284.285C52.365 284.285 52.1493 284.377 51.9707 284.56C51.7971 284.739 51.7103 284.987 51.7103 285.304C51.7103 285.622 51.7971 285.875 51.9707 286.063C52.1493 286.247 52.365 286.338 52.6179 286.338C52.8709 286.338 53.0841 286.247 53.2577 286.063C53.4363 285.88 53.5256 285.629 53.5256 285.312ZM56.3579 282.805C56.1347 282.805 55.9512 282.74 55.8073 282.611C55.6685 282.477 55.599 282.314 55.599 282.12C55.599 281.922 55.6685 281.758 55.8073 281.629C55.9512 281.495 56.1347 281.428 56.3579 281.428C56.5761 281.428 56.7546 281.495 56.8935 281.629C57.0373 281.758 57.1092 281.922 57.1092 282.12C57.1092 282.314 57.0373 282.477 56.8935 282.611C56.7546 282.74 56.5761 282.805 56.3579 282.805ZM56.9902 283.236V287.387H55.7181V283.236H56.9902ZM60.4416 283.192C60.9276 283.192 61.3145 283.35 61.6021 283.668C61.8948 283.98 62.0411 284.412 62.0411 284.962V287.387H60.7763V285.133C60.7763 284.856 60.7044 284.64 60.5606 284.486C60.4168 284.332 60.2233 284.255 59.9803 284.255C59.7373 284.255 59.5439 284.332 59.4 284.486C59.2562 284.64 59.1843 284.856 59.1843 285.133V287.387H57.9121V283.236H59.1843V283.787C59.3132 283.603 59.4868 283.459 59.7051 283.355C59.9233 283.246 60.1688 283.192 60.4416 283.192ZM64.5023 283.177C64.7949 283.177 65.0503 283.236 65.2685 283.355C65.4917 283.474 65.6628 283.63 65.7819 283.824V283.236H67.054V287.38C67.054 287.762 66.9771 288.107 66.8234 288.414C66.6746 288.727 66.444 288.975 66.1315 289.158C65.824 289.342 65.4396 289.433 64.9784 289.433C64.3634 289.433 63.8649 289.287 63.483 288.994C63.1012 288.707 62.8829 288.315 62.8284 287.819H64.0856C64.1253 287.978 64.2196 288.102 64.3683 288.191C64.5171 288.285 64.7006 288.332 64.9189 288.332C65.1817 288.332 65.39 288.255 65.5438 288.102C65.7025 287.953 65.7819 287.712 65.7819 287.38V286.792C65.6579 286.986 65.4868 287.144 65.2685 287.268C65.0503 287.387 64.7949 287.447 64.5023 287.447C64.16 287.447 63.8501 287.36 63.5723 287.187C63.2946 287.008 63.0739 286.758 62.9102 286.435C62.7515 286.108 62.6721 285.731 62.6721 285.304C62.6721 284.878 62.7515 284.503 62.9102 284.181C63.0739 283.859 63.2946 283.611 63.5723 283.437C63.8501 283.263 64.16 283.177 64.5023 283.177ZM65.7819 285.312C65.7819 284.994 65.6926 284.744 65.514 284.56C65.3404 284.377 65.1272 284.285 64.8742 284.285C64.6213 284.285 64.4055 284.377 64.227 284.56C64.0534 284.739 63.9666 284.987 63.9666 285.304C63.9666 285.622 64.0534 285.875 64.227 286.063C64.4055 286.247 64.6213 286.338 64.8742 286.338C65.1272 286.338 65.3404 286.247 65.514 286.063C65.6926 285.88 65.7819 285.629 65.7819 285.312ZM74.5273 282.165V283.184H72.3996V284.285H73.9916V285.275H72.3996V287.387H71.1274V282.165H74.5273ZM75.8357 282.805C75.6125 282.805 75.429 282.74 75.2852 282.611C75.1463 282.477 75.0769 282.314 75.0769 282.12C75.0769 281.922 75.1463 281.758 75.2852 281.629C75.429 281.495 75.6125 281.428 75.8357 281.428C76.0539 281.428 76.2325 281.495 76.3713 281.629C76.5152 281.758 76.5871 281.922 76.5871 282.12C76.5871 282.314 76.5152 282.477 76.3713 282.611C76.2325 282.74 76.0539 282.805 75.8357 282.805ZM76.4681 283.236V287.387H75.1959V283.236H76.4681ZM78.6621 281.882V287.387H77.39V281.882H78.6621ZM83.4972 285.245C83.4972 285.364 83.4898 285.488 83.4749 285.617H80.5958C80.6157 285.875 80.6975 286.073 80.8413 286.212C80.9901 286.346 81.1711 286.413 81.3844 286.413C81.7018 286.413 81.9225 286.279 82.0465 286.011H83.4005C83.3311 286.284 83.2046 286.529 83.0211 286.748C82.8426 286.966 82.6169 287.137 82.3441 287.261C82.0713 287.385 81.7663 287.447 81.429 287.447C81.0224 287.447 80.6603 287.36 80.3429 287.187C80.0255 287.013 79.7775 286.765 79.5989 286.443C79.4204 286.12 79.3311 285.743 79.3311 285.312C79.3311 284.88 79.4179 284.503 79.5915 284.181C79.77 283.859 80.018 283.611 80.3354 283.437C80.6529 283.263 81.0174 283.177 81.429 283.177C81.8308 283.177 82.1879 283.261 82.5003 283.43C82.8128 283.598 83.0558 283.839 83.2294 284.151C83.408 284.464 83.4972 284.828 83.4972 285.245ZM82.1953 284.91C82.1953 284.692 82.1209 284.518 81.9721 284.389C81.8233 284.26 81.6374 284.196 81.4142 284.196C81.2009 284.196 81.0199 284.258 80.8711 284.382C80.7273 284.506 80.638 284.682 80.6033 284.91H82.1953ZM85.8571 287.447C85.4951 287.447 85.1727 287.385 84.89 287.261C84.6073 287.137 84.3841 286.968 84.2204 286.755C84.0568 286.537 83.965 286.294 83.9452 286.026H85.2024C85.2173 286.17 85.2843 286.286 85.4033 286.376C85.5223 286.465 85.6687 286.51 85.8422 286.51C86.001 286.51 86.1225 286.48 86.2068 286.42C86.2961 286.356 86.3407 286.274 86.3407 286.175C86.3407 286.056 86.2787 285.969 86.1547 285.914C86.0307 285.855 85.8298 285.79 85.5521 285.721C85.2545 285.652 85.0065 285.58 84.8082 285.505C84.6098 285.426 84.4387 285.304 84.2948 285.141C84.151 284.972 84.0791 284.746 84.0791 284.464C84.0791 284.226 84.1436 284.01 84.2725 283.816C84.4064 283.618 84.5998 283.462 84.8528 283.348C85.1107 283.234 85.4157 283.177 85.7679 283.177C86.2886 283.177 86.6978 283.306 86.9954 283.564C87.2979 283.821 87.4715 284.164 87.5161 284.59H86.3407C86.3209 284.446 86.2564 284.332 86.1473 284.248C86.0431 284.164 85.9042 284.121 85.7307 284.121C85.5819 284.121 85.4678 284.151 85.3884 284.211C85.3091 284.265 85.2694 284.342 85.2694 284.441C85.2694 284.56 85.3314 284.65 85.4554 284.709C85.5843 284.769 85.7827 284.828 86.0506 284.888C86.3581 284.967 86.6085 285.046 86.8019 285.126C86.9954 285.2 87.164 285.324 87.3078 285.498C87.4566 285.666 87.5335 285.895 87.5385 286.182C87.5385 286.425 87.469 286.643 87.3301 286.837C87.1962 287.025 87.0003 287.174 86.7424 287.283C86.4895 287.392 86.1944 287.447 85.8571 287.447Z" fill="white"/>
<g filter="url(#filter4_b_796_125597)">
<rect x="93" y="277" width="15.8077" height="15.8077" rx="2.63462" fill="#0075FF"/>
</g>
<path d="M99.9908 284.796C99.537 284.555 99.3101 284.176 99.3101 283.659C99.3101 283.398 99.3776 283.162 99.5128 282.949C99.648 282.732 99.8532 282.561 100.128 282.435C100.404 282.305 100.741 282.24 101.142 282.24C101.543 282.24 101.878 282.305 102.149 282.435C102.424 282.561 102.629 282.732 102.764 282.949C102.899 283.162 102.967 283.398 102.967 283.659C102.967 283.92 102.904 284.147 102.779 284.34C102.658 284.533 102.494 284.685 102.286 284.796C102.547 284.922 102.747 285.095 102.887 285.317C103.027 285.535 103.097 285.791 103.097 286.085C103.097 286.428 103.01 286.725 102.837 286.976C102.663 287.222 102.426 287.41 102.127 287.541C101.833 287.671 101.504 287.736 101.142 287.736C100.78 287.736 100.449 287.671 100.15 287.541C99.8556 287.41 99.6214 287.222 99.4476 286.976C99.2738 286.725 99.1869 286.428 99.1869 286.085C99.1869 285.786 99.2569 285.527 99.3969 285.31C99.537 285.088 99.7349 284.917 99.9908 284.796ZM101.765 283.847C101.765 283.649 101.707 283.497 101.591 283.391C101.48 283.28 101.33 283.225 101.142 283.225C100.954 283.225 100.802 283.28 100.686 283.391C100.575 283.502 100.519 283.657 100.519 283.855C100.519 284.043 100.577 284.193 100.693 284.304C100.809 284.41 100.959 284.463 101.142 284.463C101.326 284.463 101.475 284.407 101.591 284.296C101.707 284.185 101.765 284.036 101.765 283.847ZM101.142 285.332C100.915 285.332 100.732 285.395 100.592 285.52C100.452 285.641 100.382 285.81 100.382 286.027C100.382 286.23 100.449 286.396 100.585 286.527C100.725 286.657 100.91 286.722 101.142 286.722C101.374 286.722 101.555 286.657 101.685 286.527C101.82 286.396 101.888 286.23 101.888 286.027C101.888 285.815 101.818 285.646 101.678 285.52C101.543 285.395 101.364 285.332 101.142 285.332Z" fill="white"/>
<g clip-path="url(#clip0_796_125597)">
<path d="M19.1895 281.829C18.9848 281.829 18.7845 281.847 18.5894 281.879C18.1028 280.288 16.5954 279.129 14.8099 279.129C12.6297 279.129 10.8634 280.856 10.8634 282.986C10.8634 283.176 10.8782 283.363 10.9057 283.547C10.8001 283.534 10.6938 283.527 10.5874 283.527C9.1053 283.527 7.9043 284.7 7.9043 286.149C7.9043 287.598 9.1053 288.773 10.5874 288.773H13.8388V285.805H11.9843L15.3225 282.096L18.6606 285.805H16.8061V288.773H19.1895C21.1502 288.773 22.7406 287.218 22.7406 285.301C22.7406 283.383 21.1502 281.829 19.1895 281.829V281.829Z" fill="white"/>
</g>
<path d="M118 298.282L145.418 298.282L146 271.122" stroke="white" stroke-width="0.875661" stroke-dasharray="3.5 3.5"/>
<circle cx="118.189" cy="298.352" r="2.18915" transform="rotate(-90 118.189 298.352)" fill="white"/>
<g filter="url(#filter5_bd_796_125597)">
<rect x="27" y="104" width="43.135" height="43.135" rx="5.01569" fill="#00FFA3" fill-opacity="0.43" shape-rendering="crispEdges"/>
<rect x="27.5016" y="104.502" width="42.1318" height="42.1318" rx="4.51413" stroke="url(#paint19_linear_796_125597)" stroke-width="1.00314" shape-rendering="crispEdges"/>
</g>
<path d="M60.7942 113.279H33.0825V134.596H60.7942V113.279ZM58.6626 132.464H35.2142V115.411H58.6626V132.464Z" fill="white"/>
<path d="M62.9263 118.608V136.728H38.4121V138.859H65.058V118.608H62.9263Z" fill="white"/>
<path d="M37.3462 118.075H39.4779V129.8H37.3462V118.075ZM54.3996 118.075H56.5312V129.8H54.3996V118.075Z" fill="white"/>
<path d="M46.9474 122.416C45.6191 122.071 45.1919 121.714 45.1919 121.158C45.1919 120.52 45.7829 120.075 46.7719 120.075C47.8135 120.075 48.1997 120.573 48.2348 121.304H49.528C49.487 120.298 48.8726 119.373 47.6496 119.075V117.793H45.8941V119.057C44.7589 119.303 43.8461 120.04 43.8461 121.17C43.8461 122.521 44.9637 123.194 46.5963 123.586C48.0592 123.937 48.3518 124.452 48.3518 124.997C48.3518 125.4 48.0651 126.044 46.7719 126.044C45.5664 126.044 45.0925 125.506 45.0281 124.815H43.7407C43.8109 126.097 44.7706 126.816 45.8941 127.056V128.326H47.6496V127.068C48.7907 126.851 49.6977 126.19 49.6977 124.991C49.6977 123.329 48.2757 122.761 46.9474 122.416Z" fill="white"/>
<g filter="url(#filter6_b_796_125597)">
<rect x="391.323" y="149.904" width="39.5192" height="39.5192" rx="4.74231" fill="white" fill-opacity="0.21"/>
<rect x="391.718" y="150.299" width="38.7288" height="38.7288" rx="4.34712" stroke="url(#paint20_linear_796_125597)" stroke-width="0.790385"/>
</g>
<g filter="url(#filter7_b_796_125597)">
<rect x="385" y="142" width="15.8077" height="15.8077" rx="4.74231" fill="#1DCDA3" fill-opacity="0.75"/>
<rect x="385.395" y="142.395" width="15.0173" height="15.0173" rx="4.34712" stroke="url(#paint21_linear_796_125597)" stroke-width="0.790385"/>
</g>
<path d="M400.679 180.04V180.392H399.236V181.511H400.407V181.863H399.236V183.358H398.803V180.04H400.679ZM402.34 183.4C402.095 183.4 401.873 183.345 401.673 183.234C401.476 183.123 401.321 182.966 401.207 182.763C401.096 182.556 401.04 182.318 401.04 182.048C401.04 181.782 401.097 181.547 401.211 181.344C401.329 181.138 401.488 180.981 401.687 180.873C401.887 180.762 402.111 180.706 402.359 180.706C402.606 180.706 402.83 180.762 403.03 180.873C403.23 180.981 403.387 181.136 403.501 181.339C403.619 181.542 403.677 181.779 403.677 182.048C403.677 182.318 403.617 182.556 403.496 182.763C403.379 182.966 403.219 183.123 403.016 183.234C402.812 183.345 402.587 183.4 402.34 183.4ZM402.34 183.02C402.495 183.02 402.641 182.983 402.778 182.91C402.914 182.837 403.024 182.728 403.106 182.582C403.192 182.436 403.235 182.258 403.235 182.048C403.235 181.839 403.193 181.661 403.111 181.515C403.028 181.369 402.92 181.261 402.787 181.192C402.654 181.119 402.509 181.082 402.354 181.082C402.195 181.082 402.049 181.119 401.916 181.192C401.786 181.261 401.681 181.369 401.602 181.515C401.522 181.661 401.483 181.839 401.483 182.048C401.483 182.261 401.521 182.44 401.597 182.586C401.676 182.732 401.781 182.842 401.911 182.915C402.041 182.985 402.184 183.02 402.34 183.02ZM404.68 179.835V183.358H404.247V179.835H404.68ZM405.257 182.044C405.257 181.777 405.31 181.544 405.418 181.344C405.526 181.141 405.674 180.984 405.861 180.873C406.052 180.762 406.264 180.706 406.499 180.706C406.702 180.706 406.891 180.754 407.065 180.849C407.24 180.941 407.373 181.063 407.465 181.215V179.835H407.903V183.358H407.465V182.867C407.38 183.023 407.253 183.151 407.085 183.253C406.916 183.351 406.72 183.4 406.494 183.4C406.263 183.4 406.052 183.343 405.861 183.229C405.674 183.115 405.526 182.955 405.418 182.748C405.31 182.542 405.257 182.307 405.257 182.044ZM407.465 182.048C407.465 181.852 407.426 181.68 407.346 181.534C407.267 181.388 407.159 181.277 407.023 181.201C406.889 181.122 406.742 181.082 406.58 181.082C406.418 181.082 406.27 181.12 406.137 181.196C406.004 181.273 405.898 181.384 405.818 181.53C405.739 181.676 405.699 181.847 405.699 182.044C405.699 182.244 405.739 182.418 405.818 182.567C405.898 182.713 406.004 182.826 406.137 182.905C406.27 182.982 406.418 183.02 406.58 183.02C406.742 183.02 406.889 182.982 407.023 182.905C407.159 182.826 407.267 182.713 407.346 182.567C407.426 182.418 407.465 182.245 407.465 182.048ZM411.016 181.953C411.016 182.036 411.011 182.123 411.001 182.215H408.916C408.932 182.472 409.019 182.674 409.178 182.82C409.34 182.962 409.535 183.034 409.764 183.034C409.951 183.034 410.106 182.991 410.23 182.905C410.357 182.816 410.446 182.699 410.497 182.553H410.963C410.893 182.804 410.754 183.008 410.544 183.167C410.335 183.323 410.075 183.4 409.764 183.4C409.516 183.4 409.294 183.345 409.097 183.234C408.904 183.123 408.751 182.966 408.64 182.763C408.529 182.556 408.474 182.318 408.474 182.048C408.474 181.779 408.527 181.542 408.635 181.339C408.743 181.136 408.894 180.981 409.088 180.873C409.284 180.762 409.51 180.706 409.764 180.706C410.011 180.706 410.23 180.76 410.421 180.868C410.611 180.976 410.757 181.125 410.858 181.315C410.963 181.503 411.016 181.715 411.016 181.953ZM410.568 181.863C410.568 181.698 410.532 181.557 410.459 181.439C410.386 181.319 410.286 181.228 410.159 181.168C410.035 181.104 409.897 181.073 409.745 181.073C409.526 181.073 409.338 181.142 409.183 181.282C409.03 181.422 408.943 181.615 408.921 181.863H410.568ZM412.021 181.173C412.097 181.023 412.205 180.908 412.344 180.825C412.487 180.743 412.66 180.701 412.863 180.701V181.149H412.749C412.263 181.149 412.021 181.412 412.021 181.939V183.358H411.587V180.749H412.021V181.173ZM415.684 183.391C415.465 183.391 415.269 183.353 415.094 183.277C414.923 183.197 414.788 183.089 414.69 182.953C414.591 182.813 414.54 182.653 414.537 182.472H414.999C415.015 182.628 415.078 182.759 415.189 182.867C415.304 182.972 415.469 183.024 415.684 183.024C415.891 183.024 416.053 182.974 416.17 182.872C416.291 182.767 416.351 182.634 416.351 182.472C416.351 182.345 416.316 182.242 416.246 182.163C416.176 182.083 416.089 182.023 415.984 181.982C415.88 181.941 415.738 181.896 415.561 181.849C415.342 181.791 415.166 181.734 415.032 181.677C414.902 181.62 414.789 181.531 414.694 181.411C414.602 181.287 414.556 181.122 414.556 180.915C414.556 180.735 414.602 180.574 414.694 180.435C414.786 180.295 414.915 180.187 415.08 180.111C415.248 180.035 415.44 179.997 415.656 179.997C415.967 179.997 416.221 180.074 416.418 180.23C416.617 180.385 416.73 180.592 416.756 180.849H416.279C416.264 180.722 416.197 180.611 416.08 180.516C415.962 180.417 415.807 180.368 415.613 180.368C415.432 180.368 415.285 180.416 415.17 180.511C415.056 180.603 414.999 180.733 414.999 180.901C414.999 181.022 415.032 181.12 415.099 181.196C415.169 181.273 415.253 181.331 415.351 181.372C415.453 181.411 415.594 181.455 415.775 181.506C415.994 181.566 416.17 181.626 416.303 181.687C416.437 181.744 416.551 181.834 416.646 181.958C416.741 182.079 416.789 182.244 416.789 182.453C416.789 182.615 416.746 182.767 416.66 182.91C416.575 183.053 416.448 183.169 416.279 183.258C416.111 183.346 415.913 183.391 415.684 183.391ZM419.673 180.749L418.102 184.586H417.655L418.169 183.329L417.117 180.749H417.598L418.417 182.862L419.226 180.749H419.673ZM421.38 180.701C421.697 180.701 421.954 180.798 422.151 180.992C422.348 181.182 422.446 181.458 422.446 181.82V183.358H422.018V181.882C422.018 181.622 421.953 181.423 421.822 181.287C421.692 181.147 421.515 181.077 421.289 181.077C421.061 181.077 420.878 181.149 420.742 181.292C420.609 181.434 420.542 181.642 420.542 181.915V183.358H420.109V180.749H420.542V181.12C420.628 180.987 420.743 180.884 420.889 180.811C421.039 180.738 421.202 180.701 421.38 180.701ZM422.992 182.048C422.992 181.779 423.046 181.544 423.154 181.344C423.262 181.141 423.411 180.984 423.601 180.873C423.795 180.762 424.015 180.706 424.263 180.706C424.583 180.706 424.847 180.784 425.053 180.939C425.263 181.095 425.401 181.311 425.467 181.587H425.001C424.956 181.428 424.869 181.303 424.739 181.211C424.612 181.119 424.453 181.073 424.263 181.073C424.015 181.073 423.815 181.158 423.663 181.33C423.511 181.498 423.435 181.737 423.435 182.048C423.435 182.363 423.511 182.605 423.663 182.777C423.815 182.948 424.015 183.034 424.263 183.034C424.453 183.034 424.612 182.989 424.739 182.901C424.866 182.812 424.953 182.685 425.001 182.52H425.467C425.397 182.786 425.258 183.001 425.048 183.162C424.839 183.321 424.577 183.4 424.263 183.4C424.015 183.4 423.795 183.345 423.601 183.234C423.411 183.123 423.262 182.966 423.154 182.763C423.046 182.559 422.992 182.321 422.992 182.048Z" fill="white"/>
<path d="M420.504 160.84H410.928L407.799 157.866C407.759 157.829 407.707 157.808 407.652 157.808H400.871C400.399 157.808 400.018 158.187 400.018 158.656V174.348C400.018 174.817 400.399 175.196 400.871 175.196H420.504C420.977 175.196 421.358 174.817 421.358 174.348V161.688C421.358 161.219 420.977 160.84 420.504 160.84ZM419.437 173.288H401.938V159.716H406.967L410.157 162.749H419.437V173.288Z" fill="white"/>
<g clip-path="url(#clip1_796_125597)">
<path d="M395.201 147.521C395.2 147.495 395.194 147.468 395.184 147.443L394.572 145.956C394.53 145.858 394.452 145.78 394.353 145.74C394.255 145.7 394.144 145.7 394.046 145.742C393.948 145.783 393.87 145.861 393.83 145.96C393.789 146.059 393.79 146.169 393.831 146.267L394.139 147.01C393.536 146.685 392.854 146.537 392.17 146.582C391.487 146.627 390.83 146.864 390.275 147.266C389.72 147.668 389.29 148.217 389.033 148.852C388.776 149.487 388.704 150.182 388.824 150.856C388.844 150.959 388.904 151.049 388.99 151.108C389.077 151.166 389.183 151.188 389.286 151.169C389.337 151.159 389.386 151.139 389.43 151.111C389.474 151.082 389.511 151.045 389.541 151.002C389.57 150.959 389.591 150.911 389.601 150.859C389.612 150.808 389.612 150.756 389.602 150.704C389.496 150.15 389.56 149.576 389.785 149.059C390.011 148.541 390.388 148.104 390.867 147.805C391.285 147.531 391.767 147.373 392.265 147.345C392.764 147.318 393.261 147.423 393.706 147.649L393.101 147.915C393.053 147.936 393.009 147.966 392.973 148.005C392.937 148.043 392.908 148.087 392.89 148.136C392.871 148.185 392.862 148.238 392.863 148.29C392.864 148.343 392.876 148.395 392.897 148.443C392.918 148.491 392.949 148.534 392.987 148.57C393.025 148.607 393.07 148.635 393.119 148.654C393.168 148.673 393.22 148.682 393.273 148.681C393.325 148.679 393.377 148.668 393.425 148.646L394.987 147.967L395.04 147.933C395.078 147.908 395.112 147.877 395.139 147.84C395.149 147.827 395.155 147.813 395.16 147.798C395.178 147.774 395.192 147.747 395.202 147.719L395.207 147.668C395.214 147.641 395.218 147.613 395.219 147.585C395.216 147.563 395.21 147.542 395.201 147.521V147.521ZM395.408 149.131C395.356 149.141 395.307 149.161 395.263 149.189C395.22 149.218 395.182 149.256 395.153 149.299C395.124 149.343 395.103 149.391 395.093 149.443C395.083 149.494 395.083 149.547 395.094 149.598C395.196 150.149 395.13 150.718 394.905 151.231C394.681 151.744 394.307 152.177 393.833 152.476C393.416 152.75 392.933 152.908 392.435 152.936C391.936 152.963 391.44 152.858 390.995 152.632L391.6 152.366L391.653 152.332C391.745 152.282 391.814 152.197 391.844 152.096C391.874 151.996 391.863 151.887 391.813 151.795C391.763 151.702 391.678 151.633 391.577 151.603C391.476 151.573 391.368 151.585 391.275 151.635L389.718 152.32C389.678 152.337 389.64 152.361 389.609 152.391L389.582 152.409C389.551 152.443 389.526 152.482 389.506 152.524C389.495 152.556 389.488 152.589 389.485 152.622L389.477 152.675C389.48 152.701 389.486 152.728 389.495 152.753C389.494 152.777 389.499 152.802 389.508 152.824L390.12 154.312C390.138 154.363 390.166 154.409 390.203 154.449C390.24 154.489 390.284 154.52 390.334 154.542C390.383 154.564 390.437 154.575 390.491 154.575C390.545 154.576 390.598 154.565 390.648 154.544L390.708 154.505C390.787 154.455 390.846 154.379 390.874 154.29C390.903 154.201 390.899 154.104 390.863 154.018L390.555 153.276C391.158 153.601 391.84 153.749 392.523 153.704C393.207 153.659 393.863 153.423 394.419 153.022C394.974 152.62 395.404 152.071 395.661 151.436C395.919 150.801 395.991 150.107 395.872 149.433C395.85 149.331 395.788 149.243 395.701 149.187C395.615 149.13 395.509 149.11 395.408 149.131Z" fill="white"/>
</g>
<path d="M320.113 43.5808L320.113 65.252L287.631 66.0745" stroke="white" stroke-width="0.692109" stroke-dasharray="2.77 2.77"/>
<circle r="1.73027" transform="matrix(-1 0 0 1 320.168 43.7303)" fill="white"/>
<path d="M190.58 331.144L212.252 331.144L212.712 309.677" stroke="white" stroke-width="0.692109" stroke-dasharray="2.77 2.77"/>
<circle cx="190.73" cy="331.199" r="1.73027" transform="rotate(-90 190.73 331.199)" fill="white"/>
<path d="M352 169.802L388 169.802" stroke="white" stroke-width="0.927171" stroke-dasharray="3.71 3.71"/>
<circle cx="390.189" cy="169.532" r="2.18915" fill="white"/>
<defs>
<filter id="filter0_d_796_125597" x="39.358" y="0.392462" width="377.14" height="407.21" filterUnits="userSpaceOnUse" color-interpolation-filters="sRGB">
<feFlood flood-opacity="0" result="BackgroundImageFix"/>
<feColorMatrix in="SourceAlpha" type="matrix" values="0 0 0 0 0 0 0 0 0 0 0 0 0 0 0 0 0 0 127 0" result="hardAlpha"/>
<feOffset dy="29.1333"/>
<feGaussianBlur stdDeviation="31.9755"/>
<feComposite in2="hardAlpha" operator="out"/>
<feColorMatrix type="matrix" values="0 0 0 0 0 0 0 0 0 0 0 0 0 0 0 0 0 0 0.25 0"/>
<feBlend mode="normal" in2="BackgroundImageFix" result="effect1_dropShadow_796_125597"/>
<feBlend mode="normal" in="SourceGraphic" in2="effect1_dropShadow_796_125597" result="shape"/>
</filter>
<filter id="filter1_b_796_125597" x="277.887" y="-4.11346" width="101.96" height="53.7461" filterUnits="userSpaceOnUse" color-interpolation-filters="sRGB">
<feFlood flood-opacity="0" result="BackgroundImageFix"/>
<feGaussianBlur in="BackgroundImage" stdDeviation="3.55673"/>
<feComposite in2="SourceAlpha" operator="in" result="effect1_backgroundBlur_796_125597"/>
<feBlend mode="normal" in="SourceGraphic" in2="effect1_backgroundBlur_796_125597" result="shape"/>
</filter>
<filter id="filter2_b_796_125597" x="67.5278" y="-1.65479" width="94.252" height="56.3134" filterUnits="userSpaceOnUse" color-interpolation-filters="sRGB">
<feFlood flood-opacity="0" result="BackgroundImageFix"/>
<feGaussianBlur in="BackgroundImage" stdDeviation="1.8274"/>
<feComposite in2="SourceAlpha" operator="in" result="effect1_backgroundBlur_796_125597"/>
<feBlend mode="normal" in="SourceGraphic" in2="effect1_backgroundBlur_796_125597" result="shape"/>
</filter>
<filter id="filter3_bd_796_125597" x="135.983" y="306.887" width="68.7636" height="68.7634" filterUnits="userSpaceOnUse" color-interpolation-filters="sRGB">
<feFlood flood-opacity="0" result="BackgroundImageFix"/>
<feGaussianBlur in="BackgroundImage" stdDeviation="1.58077"/>
<feComposite in2="SourceAlpha" operator="in" result="effect1_backgroundBlur_796_125597"/>
<feColorMatrix in="SourceAlpha" type="matrix" values="0 0 0 0 0 0 0 0 0 0 0 0 0 0 0 0 0 0 127 0" result="hardAlpha"/>
<feOffset dy="7.90385"/>
<feGaussianBlur stdDeviation="7.50865"/>
<feComposite in2="hardAlpha" operator="out"/>
<feColorMatrix type="matrix" values="0 0 0 0 0 0 0 0 0 0 0 0 0 0 0 0 0 0 0.25 0"/>
<feBlend mode="normal" in2="effect1_backgroundBlur_796_125597" result="effect2_dropShadow_796_125597"/>
<feBlend mode="normal" in="SourceGraphic" in2="effect2_dropShadow_796_125597" result="shape"/>
</filter>
<filter id="filter4_b_796_125597" x="90.8923" y="274.892" width="20.023" height="20.0231" filterUnits="userSpaceOnUse" color-interpolation-filters="sRGB">
<feFlood flood-opacity="0" result="BackgroundImageFix"/>
<feGaussianBlur in="BackgroundImage" stdDeviation="1.05385"/>
<feComposite in2="SourceAlpha" operator="in" result="effect1_backgroundBlur_796_125597"/>
<feBlend mode="normal" in="SourceGraphic" in2="effect1_backgroundBlur_796_125597" result="shape"/>
</filter>
<filter id="filter5_bd_796_125597" x="7.94036" y="94.9717" width="81.254" height="81.2543" filterUnits="userSpaceOnUse" color-interpolation-filters="sRGB">
<feFlood flood-opacity="0" result="BackgroundImageFix"/>
<feGaussianBlur in="BackgroundImage" stdDeviation="2.00628"/>
<feComposite in2="SourceAlpha" operator="in" result="effect1_backgroundBlur_796_125597"/>
<feColorMatrix in="SourceAlpha" type="matrix" values="0 0 0 0 0 0 0 0 0 0 0 0 0 0 0 0 0 0 127 0" result="hardAlpha"/>
<feOffset dy="10.0314"/>
<feGaussianBlur stdDeviation="9.52982"/>
<feComposite in2="hardAlpha" operator="out"/>
<feColorMatrix type="matrix" values="0 0 0 0 0 0 0 0 0 0 0 0 0 0 0 0 0 0 0.25 0"/>
<feBlend mode="normal" in2="effect1_backgroundBlur_796_125597" result="effect2_dropShadow_796_125597"/>
<feBlend mode="normal" in="SourceGraphic" in2="effect2_dropShadow_796_125597" result="shape"/>
</filter>
<filter id="filter6_b_796_125597" x="384.21" y="142.79" width="53.746" height="53.7461" filterUnits="userSpaceOnUse" color-interpolation-filters="sRGB">
<feFlood flood-opacity="0" result="BackgroundImageFix"/>
<feGaussianBlur in="BackgroundImage" stdDeviation="3.55673"/>
<feComposite in2="SourceAlpha" operator="in" result="effect1_backgroundBlur_796_125597"/>
<feBlend mode="normal" in="SourceGraphic" in2="effect1_backgroundBlur_796_125597" result="shape"/>
</filter>
<filter id="filter7_b_796_125597" x="377.887" y="134.887" width="30.0345" height="30.0346" filterUnits="userSpaceOnUse" color-interpolation-filters="sRGB">
<feFlood flood-opacity="0" result="BackgroundImageFix"/>
<feGaussianBlur in="BackgroundImage" stdDeviation="3.55673"/>
<feComposite in2="SourceAlpha" operator="in" result="effect1_backgroundBlur_796_125597"/>
<feBlend mode="normal" in="SourceGraphic" in2="effect1_backgroundBlur_796_125597" result="shape"/>
</filter>
<linearGradient id="paint0_linear_796_125597" x1="227.928" y1="31.2441" x2="227.928" y2="318.484" gradientUnits="userSpaceOnUse">
<stop stop-color="white"/>
<stop offset="1" stop-color="#D6D6D6"/>
</linearGradient>
<linearGradient id="paint1_linear_796_125597" x1="227.928" y1="31.2441" x2="227.928" y2="318.484" gradientUnits="userSpaceOnUse">
<stop stop-color="white"/>
<stop offset="1" stop-color="white" stop-opacity="0"/>
</linearGradient>
<linearGradient id="paint2_linear_796_125597" x1="328.866" y1="3" x2="328.866" y2="42.5192" gradientUnits="userSpaceOnUse">
<stop stop-color="white" stop-opacity="0.31"/>
<stop offset="1" stop-color="white" stop-opacity="0"/>
</linearGradient>
<linearGradient id="paint3_linear_796_125597" x1="261.845" y1="216.321" x2="261.845" y2="164.018" gradientUnits="userSpaceOnUse">
<stop stop-color="#0B1C31"/>
<stop offset="1" stop-color="#475B74"/>
</linearGradient>
<linearGradient id="paint4_linear_796_125597" x1="242.432" y1="164.018" x2="242.432" y2="127.908" gradientUnits="userSpaceOnUse">
<stop stop-color="#2B3B50"/>
<stop offset="1" stop-color="#445B77"/>
</linearGradient>
<linearGradient id="paint5_linear_796_125597" x1="285.875" y1="164.018" x2="285.875" y2="127.908" gradientUnits="userSpaceOnUse">
<stop stop-color="#2B3B50"/>
<stop offset="1" stop-color="#445B77"/>
</linearGradient>
<linearGradient id="paint6_linear_796_125597" x1="214.93" y1="182.864" x2="214.93" y2="156.101" gradientUnits="userSpaceOnUse">
<stop stop-color="#0B1C31"/>
<stop offset="1" stop-color="#293748"/>
</linearGradient>
<linearGradient id="paint7_linear_796_125597" x1="204.966" y1="175.042" x2="204.966" y2="145.793" gradientUnits="userSpaceOnUse">
<stop stop-color="#0B1C31"/>
<stop offset="1" stop-color="#293748"/>
</linearGradient>
<linearGradient id="paint8_linear_796_125597" x1="139.078" y1="338.574" x2="139.078" y2="272.705" gradientUnits="userSpaceOnUse">
<stop stop-color="#FFB389"/>
<stop offset="1" stop-color="#F49662"/>
</linearGradient>
<linearGradient id="paint9_linear_796_125597" x1="176.629" y1="338.574" x2="176.629" y2="273.321" gradientUnits="userSpaceOnUse">
<stop stop-color="#FFB389"/>
<stop offset="1" stop-color="#F49662"/>
</linearGradient>
<linearGradient id="paint10_linear_796_125597" x1="144.279" y1="274.254" x2="144.279" y2="208.251" gradientUnits="userSpaceOnUse">
<stop stop-color="#C0C0C0"/>
<stop offset="1" stop-color="#A4A4A4"/>
</linearGradient>
<linearGradient id="paint11_linear_796_125597" x1="168.484" y1="274.254" x2="168.484" y2="213.069" gradientUnits="userSpaceOnUse">
<stop stop-color="#C0C0C0"/>
<stop offset="1" stop-color="#A4A4A4"/>
</linearGradient>
<linearGradient id="paint12_linear_796_125597" x1="165.406" y1="224.752" x2="165.406" y2="136.658" gradientUnits="userSpaceOnUse">
<stop stop-color="#135392"/>
<stop offset="1" stop-color="#307BC5"/>
</linearGradient>
<linearGradient id="paint13_linear_796_125597" x1="215.184" y1="182.646" x2="215.184" y2="154.05" gradientUnits="userSpaceOnUse">
<stop stop-color="#0B1C31"/>
<stop offset="1" stop-color="#293748"/>
</linearGradient>
<linearGradient id="paint14_linear_796_125597" x1="174.167" y1="118.806" x2="174.167" y2="99.8121" gradientUnits="userSpaceOnUse">
<stop stop-color="#FCBA00"/>
<stop offset="1" stop-color="#FF9900"/>
</linearGradient>
<linearGradient id="paint15_linear_796_125597" x1="114.654" y1="2" x2="114.654" y2="51.0038" gradientUnits="userSpaceOnUse">
<stop stop-color="white" stop-opacity="0.31"/>
<stop offset="1" stop-color="white" stop-opacity="0"/>
</linearGradient>
<linearGradient id="paint16_linear_796_125597" x1="170.364" y1="314" x2="170.364" y2="352.729" gradientUnits="userSpaceOnUse">
<stop stop-color="#ABE2FF"/>
<stop offset="1" stop-color="#ABE2FF" stop-opacity="0"/>
</linearGradient>
<linearGradient id="paint17_linear_796_125597" x1="362.189" y1="293" x2="362.189" y2="347.323" gradientUnits="userSpaceOnUse">
<stop stop-color="white" stop-opacity="0.31"/>
<stop offset="1" stop-color="white" stop-opacity="0"/>
</linearGradient>
<linearGradient id="paint18_linear_796_125597" x1="59" y1="270" x2="59" y2="320" gradientUnits="userSpaceOnUse">
<stop stop-color="white" stop-opacity="0.31"/>
<stop offset="1" stop-color="white" stop-opacity="0"/>
</linearGradient>
<linearGradient id="paint19_linear_796_125597" x1="48.5675" y1="104" x2="48.5675" y2="147.135" gradientUnits="userSpaceOnUse">
<stop stop-color="#ABFFF0"/>
<stop offset="1" stop-color="#ABFFF0" stop-opacity="0"/>
</linearGradient>
<linearGradient id="paint20_linear_796_125597" x1="411.083" y1="149.904" x2="411.083" y2="189.423" gradientUnits="userSpaceOnUse">
<stop stop-color="white" stop-opacity="0.31"/>
<stop offset="1" stop-color="white" stop-opacity="0"/>
</linearGradient>
<linearGradient id="paint21_linear_796_125597" x1="392.904" y1="142" x2="392.904" y2="157.808" gradientUnits="userSpaceOnUse">
<stop stop-color="#F3F3F3" stop-opacity="0.73"/>
<stop offset="1" stop-color="white" stop-opacity="0"/>
</linearGradient>
<clipPath id="clip0_796_125597">
<rect width="14.8363" height="14.8363" fill="white" transform="translate(7.9043 276.904)"/>
</clipPath>
<clipPath id="clip1_796_125597">
<rect width="9.48462" height="9.48462" fill="white" transform="translate(385.791 148.745) rotate(-32.9914)"/>
</clipPath>
</defs>
</svg>
